<svg width="42" height="32" viewBox="0 0 42 32" fill="none" xmlns="http://www.w3.org/2000/svg">
<g clip-path="url(#clip0_506_689)">
<path d="M0 0H42V32H0V0Z" fill="#00843D"/>
<path d="M23.4675 3.53334C23.9686 3.77193 24.4142 4.11565 24.7751 4.54186C25.1359 4.96807 25.4038 5.4671 25.561 6.00608C25.7183 6.54506 25.7613 7.11177 25.6874 7.66889C25.6135 8.22601 25.4242 8.76089 25.132 9.23832C24.8399 9.71575 24.4515 10.1249 23.9924 10.4388C23.5333 10.7527 23.014 10.9642 22.4686 11.0595C21.9233 11.1548 21.3642 11.1316 20.8283 10.9915C20.2924 10.8514 19.7918 10.5975 19.3594 10.2467C20.2184 10.6138 21.1781 10.6578 22.0661 10.3709C22.9542 10.084 23.7125 9.48488 24.2049 8.68114C24.6973 7.8774 24.8916 6.92167 24.7529 5.98552C24.6141 5.04938 24.1514 4.19414 23.4479 3.57334L23.4675 3.53334ZM19.7532 6.46667L20.1732 5.08L19.0116 5.94H20.4488L19.2807 5.08L19.7532 6.46667ZM19.7532 4.42667L20.1732 3.04L19.0116 3.9H20.4488L19.2807 3.02L19.7532 4.42667ZM21.735 5.46667L22.155 4.08L20.9869 4.94H22.4307L21.2625 4.08L21.735 5.46667ZM17.7319 7.48667L18.1847 6.1L17.0166 6.95334H18.4604L17.2922 6.1L17.7319 7.48667ZM19.7204 8.51334L20.1666 7.13334L19.005 7.98667H20.4422L19.2741 7.13334L19.7204 8.51334Z" fill="white"/>
<path d="M5.68311 0H14.1881V32H5.68311V0Z" fill="#D22630"/>
<path d="M7.7437 0H7.46808L6.92339 0.506667L6.72651 0.28H6.92339L6.87089 0.08H6.54933L5.87995 0.68V0.933333H6.20808V0.733333L6.35245 0.88L6.00464 1.18667L6.1687 1.33333L5.67651 1.78667V2.12L6.49683 1.35333L6.35245 1.18L6.67401 0.873333L6.39839 0.6L6.57558 0.4L6.94308 0.746667L7.7437 0ZM5.70933 0V0.58L5.87339 0.4V0.153333H6.07026L6.25401 0H5.70933ZM7.19245 0H6.99558L7.02183 0.153333L7.19245 0Z" fill="#383739"/>
<path d="M7.71748 0H7.46811L6.94311 0.506667L6.70029 0.253333H6.92342L6.87092 0.0733333H6.57561L5.92592 0.706667V0.906667H6.17529V0.653333L6.39842 0.88L6.05061 1.18667L6.20154 1.33333L5.70279 1.84V2.09333L6.45092 1.33333L6.29998 1.18667L6.64779 0.88L6.35248 0.606667L6.60186 0.38L6.94311 0.733333L7.69123 0H7.71748ZM5.68311 0V0.553333L5.82748 0.38V0.126667H6.05061L6.20154 0H5.68311ZM7.16623 0H7.04811V0.1L7.16623 0Z" fill="#FFC72C"/>
<path d="M5.68308 3.70667V4.03333L6.15558 4.48667L5.97839 4.63333L6.3262 4.96667L6.17526 5.08667V4.88667H5.87995V5.14L6.54933 5.77333H6.87745L6.92339 5.52H6.6937L6.89058 5.34L7.43526 5.84666L6.89058 6.3L6.6937 6.12H6.89058L6.83808 5.87333H6.51651L5.87339 6.55333V6.8H6.20151V6.55333L6.34589 6.7L5.99808 7.00666L6.1687 7.18L5.67651 7.63333V7.94L6.49683 7.18L6.35245 7.00666L6.67401 6.7L6.39839 6.42667L6.57558 6.24666L6.94308 6.55333L7.76339 5.79333L6.94308 5.04L6.57558 5.39333L6.39839 5.21333L6.67401 4.94L6.34589 4.60667L6.49683 4.46667L5.70933 3.70667H5.68308ZM5.68308 5.21333V6.42667L5.8537 6.22667V5.97333H6.05058L6.22776 5.82L6.05058 5.66667H5.8537V5.42L5.68308 5.21333ZM7.04808 5.64666V5.97333L7.2187 5.82L7.04808 5.64666Z" fill="#383739"/>
<path d="M5.68311 3.75333V4.00666L6.17529 4.48666L6.03092 4.63333L6.37873 4.96666L6.15561 5.13999V4.91333H5.90623V5.11333L6.54936 5.74666H6.84467L6.89717 5.56666H6.64779L6.92342 5.31333L7.49436 5.81999L6.92342 6.32666L6.67404 6.07333H6.89717L6.84467 5.91999H6.54936L5.90623 6.51999V6.72666H6.15561V6.47333L6.37873 6.69999L6.03092 7.00666L6.17529 7.17999L5.68311 7.65999V7.91333L6.42467 7.15333L6.27373 7.00666L6.62154 6.69999L6.32623 6.42666L6.57561 6.19999L6.94311 6.55333L7.71748 5.81999L6.92342 5.08666L6.54936 5.43999L6.32623 5.23999L6.62154 4.96666L6.27373 4.63333L6.45092 4.48666L5.68311 3.75333ZM5.68311 5.26666V6.37333L5.82748 6.22666V5.97333H6.05061L6.20154 5.81999L6.05061 5.69333H5.82748V5.43999L5.68311 5.26666ZM7.06779 5.69333V5.91999L7.19904 5.81999L7.06779 5.69333Z" fill="#FFC72C"/>
<path d="M5.68308 9.72667V10.08L6.15558 10.5333L5.97839 10.6867L6.3262 10.9867L6.17526 11.14V10.94H5.87995V11.1867L6.54933 11.7867H6.87745L6.92339 11.5867H6.6937L6.89058 11.3867L7.43526 11.8667L6.89058 12.3733L6.6937 12.1467H6.89058L6.83808 11.92H6.51651L5.84714 12.5467V12.8H6.19495V12.6L6.34589 12.7267L5.99808 13.0533L6.1687 13.2L5.67651 13.66V13.9867L6.49683 13.2267L6.35245 13.0533L6.67401 12.72L6.39839 12.4733L6.57558 12.2733L6.94308 12.6L7.76339 11.84L6.94308 11.0867L6.57558 11.44L6.39839 11.24L6.67401 10.9867L6.34589 10.6533L6.49683 10.5067L5.70933 9.75334L5.68308 9.72667ZM5.68308 11.24V12.42L5.8537 12.2467V11.9933H6.05058L6.22776 11.84L6.05058 11.6667H5.8537V11.44L5.68308 11.24ZM7.04808 11.6667V12L7.2187 11.82L7.04808 11.6667Z" fill="#383739"/>
<path d="M5.68311 9.75334V10L6.17529 10.5067L6.03748 10.6667L6.38529 10.9667L6.16217 11.1667V10.92H5.90623V11.1667L6.54936 11.7467H6.84467L6.89717 11.5733H6.64779L6.92342 11.32L7.49436 11.8267L6.92342 12.3533L6.67404 12.1H6.89717L6.84467 11.9267H6.54936L5.90623 12.5533V12.7533H6.15561V12.5067L6.37873 12.7067L6.03092 13.0333L6.17529 13.1867L5.68311 13.6867V13.94L6.42467 13.1867L6.27373 13.0333L6.62154 12.7L6.32623 12.4533L6.57561 12.2L6.94311 12.6L7.71748 11.8467L6.92342 11.1467L6.54936 11.4933L6.32623 11.2667L6.62154 11.02L6.27373 10.6867L6.45092 10.54L5.68311 9.75334ZM5.68311 11.26V12.3933L5.82748 12.22V11.9667H6.05061L6.20154 11.84L6.05061 11.6933H5.82748V11.44L5.68311 11.2867V11.26ZM7.06779 11.7133V11.94L7.19904 11.82L7.06779 11.7133Z" fill="#FFC72C"/>
<path d="M5.68308 15.7467V16.0533L6.15558 16.5067L5.97839 16.6533L6.3262 16.9867L6.17526 17.1333V16.9333H5.87995V17.1867L6.54933 17.7867H6.87745L6.92339 17.56H6.6937L6.89058 17.3867L7.43526 17.8667L6.89058 18.34L6.6937 18.14H6.89058L6.83808 17.9133H6.51651L5.84714 18.5467V18.8H6.19495V18.6L6.34589 18.72L5.99808 19.0533L6.1687 19.2L5.67651 19.6533V19.9867L6.49683 19.22L6.35245 19.04L6.67401 18.7133L6.39839 18.46L6.57558 18.26L6.94308 18.6133L7.76339 17.86L6.94308 17.1L6.57558 17.4333L6.39839 17.2533L6.67401 17L6.34589 16.6467L6.49683 16.5L5.70933 15.74L5.68308 15.7467ZM5.68308 17.26V18.4467L5.8537 18.2467V18.0133H6.05058L6.23433 17.8667L6.05714 17.6867H5.86026V17.4667L5.68308 17.26ZM7.04808 17.6867V18.02L7.2187 17.84L7.04808 17.6867Z" fill="#383739"/>
<path d="M5.68308 15.7733V16.0267L6.17526 16.5267L6.03089 16.66L6.3787 16.98L6.15558 17.18V16.9333H5.9062V17.16L6.54933 17.76H6.84464L6.89714 17.5867H6.64776L6.92339 17.3333L7.49433 17.84L6.92339 18.3733L6.67401 18.1133H6.89714L6.84464 17.94H6.54933L5.9062 18.54V18.7733H6.15558V18.52L6.3787 18.72L6.03089 19.0533L6.1687 19.2L5.67651 19.7067V19.9533L6.42464 19.2L6.2737 19.0467L6.62151 18.72L6.3262 18.4667L6.57558 18.22L6.94308 18.5933L7.71745 17.84L6.92339 17.1333L6.54933 17.4867L6.3262 17.26L6.62151 17.0067L6.2737 16.6533L6.45089 16.5067L5.68308 15.7733ZM5.68308 17.2867V18.42L5.82745 18.24V18H6.05058L6.20151 17.8667L6.05058 17.72H5.82745V17.4667L5.68308 17.32V17.2867ZM7.06776 17.74V17.9667L7.19901 17.8333L7.06776 17.74Z" fill="#FFC72C"/>
<path d="M5.68308 21.7733V22.0733L6.15558 22.5267L5.97839 22.68L6.3262 23.0067L6.17526 23.1333V22.9333H5.87995V23.18L6.54933 23.8133H6.87745L6.92339 23.5867H6.6937L6.89058 23.3867L7.43526 23.8867L6.89058 24.3667L6.6937 24.1667H6.89058L6.83808 23.94H6.51651L5.84714 24.5667V24.82H6.19495V24.5933L6.34589 24.74L5.99808 25.0733L6.1687 25.22L5.67651 25.6733V25.98L6.49683 25.22L6.35245 25.0733L6.67401 24.74L6.39839 24.4667L6.57558 24.2867L6.94308 24.64L7.76339 23.8867L6.94308 23.1333L6.57558 23.46L6.39839 23.28L6.67401 23.0067L6.34589 22.6733L6.49683 22.5333L5.68308 21.7733ZM5.68308 23.28V24.4667L5.8537 24.2667V24.04H6.05058L6.22776 23.86L6.05058 23.7133H5.8537V23.46L5.68308 23.28ZM7.04808 23.7133V24.0133L7.2187 23.86L7.04808 23.7133Z" fill="#383739"/>
<path d="M5.68311 21.8V22.0467L6.16873 22.5333L6.02436 22.6867L6.37217 23.0133L6.14904 23.2133V22.96H5.90623V23.1867L6.54936 23.7867H6.84467L6.89717 23.6133H6.64779L6.92342 23.3667L7.49436 23.8667L6.92342 24.4L6.67404 24.1467H6.89717L6.84467 23.9667H6.54936L5.90623 24.5733V24.8H6.15561V24.5467L6.37873 24.7467L6.03092 25.08L6.17529 25.2267L5.68311 25.7333V25.96L6.42467 25.2L6.27373 25.0667L6.62154 24.74L6.32623 24.4667L6.57561 24.24L6.94311 24.5933L7.71748 23.86L6.92342 23.1267L6.54936 23.4867L6.32623 23.2867L6.62154 23.0067L6.27373 22.6733L6.45092 22.5267L5.68311 21.8ZM5.68311 23.3067V24.44L5.82748 24.2867V24.04H6.05061L6.20154 23.8867L6.05061 23.76H5.82748V23.5067L5.68311 23.3333V23.3067ZM7.06779 23.7333V23.9867L7.19904 23.86L7.06779 23.7333Z" fill="#FFC72C"/>
<path d="M12.1078 0H12.4031L12.9019 0.506667L13.1512 0.253333H12.9544L13.0003 0.0533333H13.3219L13.9912 0.653333V0.906667H13.65V0.706667L13.499 0.86L13.8469 1.16L13.6762 1.31333L14.175 1.76667V2.09333L13.3481 1.33333L13.4925 1.16L13.1709 0.86L13.4465 0.58L13.2694 0.38L12.9019 0.753333L12.1078 0ZM14.1881 0V0.58L13.9912 0.4V0.153333H13.7944L13.6172 0H14.1881ZM12.6262 0H12.8231L12.8034 0.153333L12.6262 0Z" fill="#383739"/>
<path d="M12.1537 0H12.3506L12.9281 0.506667L13.1709 0.253333H12.9478L13.0003 0.0733333H13.2956L13.9453 0.706667V0.906667H13.6959V0.653333L13.4991 0.88L13.8206 1.18667L13.6697 1.36L14.1684 1.84V2.09333L13.4203 1.33333L13.5713 1.18667L13.2234 0.88L13.5188 0.606667L13.2694 0.38L12.9478 0.753333L12.1406 0H12.1537ZM14.1881 0V0.553333L14.0175 0.38V0.126667H13.7944L13.6631 0H14.1881ZM12.6525 0H12.8034V0.1L12.6525 0Z" fill="#FFC72C"/>
<path d="M14.1881 3.70667V4.03333L13.6959 4.48667L13.8665 4.63333L13.5187 4.96667L13.6696 5.08667V4.88667H13.965V5.14L13.2956 5.77333H12.974L12.9281 5.52H13.125L12.9281 5.34L12.4031 5.84666L12.9018 6.3L13.125 6.12H12.9281L12.974 5.87333H13.3021L13.965 6.52666V6.78H13.65V6.55333L13.499 6.7L13.8468 7.00666L13.6762 7.18L14.175 7.63333V7.94L13.3546 7.18L13.499 7.00666L13.1775 6.7L13.4531 6.42667L13.2759 6.24666L12.9084 6.55333L12.075 5.79333L12.8953 5.04L13.2628 5.39333L13.44 5.21333L13.1643 4.94L13.4925 4.60667L13.3415 4.46L14.1618 3.70667H14.1881ZM14.1881 5.21333V6.42667L13.9912 6.22667V5.97333H13.7943L13.6171 5.82L13.7943 5.66667H13.9912V5.42L14.1881 5.21333ZM12.8034 5.64666L12.8231 5.82L12.8034 5.97333L12.6262 5.82L12.8034 5.64666Z" fill="#383739"/>
<path d="M14.1881 3.75333V4.00666L13.6434 4.45999L13.7943 4.61333L13.4662 4.93999L13.6631 5.11333V4.88666H13.919V5.08666L13.2693 5.71999H12.974L12.9281 5.53999H13.1709L12.9018 5.29333L12.3309 5.79333L12.9018 6.29999L13.1512 6.04666H12.9281L12.974 5.89333H13.2693L13.919 6.49999V6.69999H13.6696V6.45333L13.4728 6.67999L13.7943 6.97999L13.6434 7.15333L14.1421 7.63333V7.88666L13.3874 7.13333L13.5384 6.97999L13.1906 6.67999L13.4859 6.39999L13.2431 6.17333L12.8953 6.52666L12.1012 5.79333L12.8887 5.05999L13.2628 5.41999L13.4859 5.21999L13.1906 4.93999L13.5384 4.60666L13.3678 4.45999L14.1881 3.75333ZM14.1881 5.26666V6.37333L14.0174 6.22666V5.97333H13.7943L13.6631 5.81999L13.7943 5.69333H14.0174V5.43999L14.1881 5.26666ZM12.7771 5.69333L12.8034 5.82666V5.91999L12.6524 5.81999L12.7771 5.69333Z" fill="#FFC72C"/>
<path d="M14.1881 9.72667V10.08L13.6959 10.5333L13.8665 10.6867L13.5187 10.9867L13.6697 11.14V10.94H13.965V11.1867L13.2956 11.7867H12.974L12.9019 11.5867H13.0987L12.9019 11.3867L12.4031 11.84L12.9019 12.3467L13.125 12.12H12.9281L12.974 11.8933H13.3022L13.965 12.52V12.7733H13.65V12.5733L13.499 12.7L13.8469 13.0267L13.6762 13.18L14.175 13.6333V13.96L13.3481 13.2L13.4925 13.0267L13.1709 12.6933L13.4465 12.4467L13.2694 12.2467L12.9019 12.6L12.0815 11.84L12.9019 11.0867L13.2694 11.44L13.4465 11.24L13.1709 10.9867L13.499 10.6533L13.3481 10.5067L14.1684 9.75334L14.1881 9.72667ZM14.1881 11.24V12.42L13.9912 12.2467V11.9933H13.7944L13.6172 11.84L13.7944 11.6667H13.9912V11.44L14.1881 11.24ZM12.8034 11.6667L12.8231 11.82L12.8034 11.9933L12.6262 11.82L12.8034 11.6667Z" fill="#383739"/>
<path d="M14.1881 9.75333V9.99999L13.6631 10.5067L13.8206 10.66L13.4924 10.96L13.6893 11.16V10.9133H13.9453V11.16L13.2956 11.74H13.0003L12.9478 11.5667H13.1971L12.9018 11.34L12.3309 11.84L12.9018 12.3733L13.1512 12.12H12.9281L12.974 11.94H13.2693L13.919 12.5733V12.7733H13.6696V12.52L13.4728 12.72L13.7943 13.0533L13.6434 13.2L14.1421 13.7067V13.96L13.3874 13.2L13.5384 13.0533L13.1906 12.72L13.4859 12.4733L13.2431 12.22L12.8953 12.6L12.1012 11.84L12.8887 11.14L13.2628 11.4867L13.4859 11.26L13.1906 11.0133L13.5384 10.68L13.3678 10.5333L14.1881 9.75333ZM14.1881 11.26V12.3933L14.0174 12.22V11.9667H13.7943L13.6631 11.84L13.7943 11.6933H14.0174V11.44L14.1881 11.2867V11.26ZM12.7771 11.7133L12.8034 11.82V11.94L12.6524 11.82L12.7771 11.7133Z" fill="#FFC72C"/>
<path d="M14.1881 15.7467V16.0533L13.6959 16.5067L13.8665 16.6533L13.5187 16.9867L13.6696 17.1333V16.9333H13.965V17.1867L13.2956 17.7867H12.974L12.9281 17.56H13.125L12.9281 17.3867L12.4031 17.8667L12.9018 18.34L13.125 18.14H12.9281L12.974 17.9133H13.3021L13.965 18.5467V18.8H13.65V18.6L13.499 18.72L13.8468 19.0533L13.6762 19.2L14.175 19.6533V19.9867L13.3546 19.2267L13.499 19.0467L13.1775 18.72L13.4531 18.4667L13.2759 18.2667L12.9084 18.62L12.075 17.8667L12.8953 17.1067L13.2628 17.44L13.44 17.26L13.1643 17.0067L13.4925 16.6533L13.3415 16.5067L14.1618 15.7467H14.1881ZM14.1881 17.26V18.4467L13.9912 18.2467V18.0133H13.7943L13.6171 17.8667L13.7943 17.6867H13.9912V17.4667L14.1881 17.26ZM12.8034 17.6867L12.8231 17.84L12.8034 18.0133L12.6262 17.84L12.8034 17.6867Z" fill="#383739"/>
<path d="M14.1881 15.7733V16.0267L13.6631 16.5267L13.8206 16.66L13.4925 16.98L13.6893 17.18V16.9333H13.9453V17.16L13.2956 17.76H13.0003L12.9478 17.5867H13.1972L12.9281 17.3333L12.3572 17.84L12.9281 18.3733L13.1709 18.1133H12.9478L13.0003 17.94H13.2956L13.9453 18.54V18.7733H13.6959V18.52L13.499 18.72L13.8206 19.0533L13.6697 19.2L14.1684 19.7067V19.9533L13.4203 19.2L13.5712 19.0467L13.2234 18.72L13.5187 18.4667L13.2693 18.22L12.9281 18.5933L12.134 17.84L12.9215 17.1333L13.2956 17.4867L13.5187 17.26L13.2234 17.0067L13.5712 16.6533L13.394 16.5067L14.1881 15.7733ZM14.1881 17.2867V18.42L14.0175 18.24V18H13.7943L13.6631 17.8667L13.7943 17.72H14.0175V17.4667L14.1881 17.32V17.2867ZM12.7772 17.74L12.8034 17.84V17.9667L12.6525 17.8333L12.7772 17.74Z" fill="#FFC72C"/>
<path d="M14.1881 21.7733V22.0733L13.6959 22.5267L13.8666 22.68L13.5188 23.0067L13.6697 23.1333V22.9333H13.965V23.18L13.2956 23.8133H12.9741L12.9281 23.5867H13.125L12.9281 23.3867L12.4031 23.8867L12.9019 24.3667L13.125 24.1667H12.9281L12.9741 23.94H13.3022L13.965 24.5667V24.82H13.65V24.5933L13.4991 24.74L13.8469 25.0733L13.6763 25.22L14.175 25.6733V25.98L13.3547 25.22L13.4991 25.0733L13.1775 24.74L13.4531 24.4667L13.2759 24.2867L12.9084 24.64L12.0881 23.8867L12.9084 23.1333L13.2759 23.46L13.4531 23.28L13.1775 23.0067L13.5056 22.6733L13.3547 22.5267L14.1881 21.7733ZM14.1881 23.28V24.4667L13.9913 24.2667V24.04H13.7944L13.6172 23.86L13.7944 23.7133H13.9913V23.46L14.1881 23.28ZM12.8034 23.7133L12.8231 23.86L12.8034 24.0133L12.6263 23.86L12.8034 23.7133Z" fill="#383739"/>
<path d="M14.1881 21.8V22.0467L13.6499 22.5333L13.8009 22.6867L13.4728 23.0133L13.6696 23.2133V22.96H13.9256V23.1867L13.2759 23.7867H12.9806L12.9346 23.6133H13.1774L12.9084 23.3667L12.3374 23.8667L12.9084 24.4L13.1578 24.1467H12.9281L12.974 23.9667H13.2693L13.919 24.5733V24.8H13.6696V24.5467L13.4728 24.7467L13.7943 25.08L13.6434 25.2267L14.1421 25.7333V25.96L13.3874 25.2L13.5384 25.0667L13.1906 24.74L13.4859 24.4667L13.2431 24.24L12.8953 24.5933L12.1012 23.86L12.8887 23.1267L13.2628 23.4867L13.4859 23.2867L13.1906 23.0067L13.5384 22.6733L13.3678 22.5267L14.1881 21.8ZM14.1881 23.3067V24.44L14.0174 24.2867V24.04H13.7943L13.6631 23.8867L13.7943 23.76H14.0174V23.5067L14.1881 23.3333V23.3067ZM12.7771 23.7333L12.8034 23.8667V23.9867L12.6524 23.86L12.7771 23.7333Z" fill="#FFC72C"/>
<path d="M6.35251 28.32C6.39845 28.5 6.54939 28.6267 6.60189 28.8267C6.64783 28.6267 6.70033 28.4467 6.66751 28.2467C6.62158 28.0933 6.49689 27.9933 6.49689 27.82C6.35251 27.94 6.32626 28.12 6.35251 28.32ZM6.32626 29.08C6.4496 29.2436 6.61232 29.3722 6.79876 29.4533C6.74626 29.3067 6.79876 29.2 6.8972 29.08C6.96939 28.9467 7.02189 28.8267 6.94314 28.6467C6.91422 28.7274 6.87447 28.8037 6.82501 28.8733C6.74158 28.9735 6.68907 29.0964 6.67408 29.2267C6.57564 29.1533 6.54939 29.0533 6.49689 28.9533C6.41937 28.8044 6.30078 28.6816 6.15564 28.6C6.20158 28.7733 6.22126 28.9267 6.32626 29.08ZM6.99564 29.58L6.94314 29.8333L6.67408 29.6333C6.54939 29.5 6.39845 29.4533 6.30001 29.3C6.30153 29.3943 6.32489 29.4869 6.36822 29.5703C6.41155 29.6537 6.47362 29.7255 6.54939 29.78L7.07439 30.1133C7.04814 29.9333 7.12033 29.78 7.16626 29.6067C7.18111 29.5368 7.17996 29.4644 7.16289 29.395C7.14582 29.3257 7.1133 29.2612 7.06783 29.2067C7.06783 29.3267 7.02189 29.4533 6.99564 29.5533V29.58ZM7.34345 30.16L7.54033 30.5133C7.37845 30.4511 7.21439 30.3667 7.04814 30.26C6.87095 30.16 6.67408 30.1133 6.49689 29.96C6.53703 30.1039 6.61312 30.2347 6.71776 30.3398C6.82241 30.445 6.95204 30.5208 7.09408 30.56C7.3172 30.6133 7.48783 30.5867 7.7372 30.6933C7.70551 30.5168 7.648 30.346 7.56658 30.1867L7.41564 29.8333C7.38015 29.8801 7.35527 29.9342 7.34279 29.9918C7.33031 30.0494 7.33054 30.1091 7.34345 30.1667V30.16ZM7.98658 30.64C8.04978 30.7425 8.13504 30.8291 8.23595 30.8933C7.98658 30.8933 7.7897 30.76 7.54033 30.74C7.39595 30.74 7.24501 30.7933 7.09408 30.7667C7.29095 30.8933 7.46814 31.02 7.6847 31.02C7.96033 31.0667 8.23595 31.02 8.55751 31.02C8.42376 30.9193 8.31389 30.7895 8.23595 30.64C8.11126 30.44 7.98658 30.3067 7.76345 30.2867L8.01283 30.64H7.98658ZM8.85939 31.04C8.43283 31.12 8.01283 31.22 7.56658 31.22C8.03289 31.4196 8.55696 31.4292 9.03001 31.2467C9.27939 31.1667 9.50251 31.0933 9.69939 31.1133C9.9947 31.1133 10.3425 31.2667 10.7428 31.6733L10.8938 31.5467C10.6158 31.309 10.2877 31.1397 9.93487 31.0518C9.58204 30.9639 9.21401 30.9599 8.85939 31.04Z" fill="#FFC72C"/>
<path d="M6.74628 3.75334L6.05066 3.33334V2.32L6.74628 1.88667V1.33334L7.36972 0.960005H7.89472L8.8791 0.380005H10.966L11.9569 0.960005H12.4557L13.1513 1.33334V1.88667L13.8207 2.32V3.32L13.1513 3.75334V4.28667L12.5016 4.68667H11.9766L10.9922 5.24001H8.90535L7.91441 4.68667H7.41566L6.72003 4.28667L6.74628 3.75334Z" fill="#383739"/>
<path d="M8.87909 0.399994L7.89472 0.979994H7.39597L6.74628 1.35999V1.89333L6.0769 2.31999V3.31999L6.74628 3.72666V4.28666L7.39597 4.65999H7.88815L8.87909 5.21333H10.966L11.9569 4.65999H12.4557L13.0988 4.28666V3.72666L13.7682 3.32666V2.31999L13.0988 1.88666V1.35999L12.4557 0.979994H11.9569L10.966 0.399994H8.87909ZM8.93159 0.626661H10.9135L11.911 1.18666H12.4032L12.9019 1.45999V2.01333L13.5713 2.44666V3.19999L12.8757 3.62666V4.15999L12.4032 4.45999H11.911L10.9135 5.01333H8.93159L7.94065 4.46666H7.4419L6.94315 4.16666V3.63333L6.27378 3.19999V2.44666L6.9694 2.01333V1.46666L7.46815 1.19333H7.96034L8.93159 0.626661Z" fill="#00843D"/>
<path d="M9.92255 2.82V0.626663H8.93161L7.96036 1.20666H7.46817L6.96942 1.46V2.01333L6.30005 2.44666V2.8H9.92255V4.98666H10.9135L11.911 4.43333H12.4032L12.8494 4.16V3.6L13.545 3.17333V2.82H9.92255Z" fill="#FFC72C"/>
<path d="M6.30005 2.82V3.17333L6.99567 3.6V4.16L7.44192 4.40666H7.96692L8.9513 4.98666H9.92255V2.8H13.545V2.44666L12.8494 2.01333V1.51333L12.4032 1.2H11.911L10.9135 0.619995H9.92911V2.82H6.30005Z" fill="white"/>
<path d="M7.78975 1.41334L7.61912 1.23334L7.46818 1.33334L7.63881 1.51334L7.396 1.64H7.88818L8.28193 2.04L8.41318 1.88667L8.01287 1.51334V1.26L7.78975 1.41334Z" fill="#383739"/>
<path d="M8.58382 1.33333L8.41319 1.18666L8.26226 1.28666L8.43288 1.43333L8.18351 1.56666H8.68226L9.07601 1.96666L9.20726 1.81333L8.83319 1.43333V1.18666L8.58382 1.33333ZM7.73726 1.83999L7.56663 1.68666L7.39601 1.81999L7.56663 1.96666L7.34351 2.09333H7.84226L8.23601 2.49333L8.36069 2.33999L7.96694 1.96666V1.71333L7.73726 1.83999Z" fill="#383739"/>
<path d="M9.9225 0.626663H9.5025L9.27937 0.826663H8.83313L8.53125 1.00666L8.61 1.18666L8.87906 1.03333H9.01031L9.45 1.54L9.9225 1.26V0.626663Z" fill="#383739"/>
<path d="M7.61251 1.26L7.76345 1.41333L7.63876 1.48666L7.49438 1.36L7.61251 1.26ZM8.01282 1.31333V1.51333L8.38689 1.88666L8.28845 1.99333L7.8947 1.61333H7.49438L7.98657 1.28L8.01282 1.31333ZM8.40657 1.20667L8.55751 1.34L8.43282 1.43333L8.28845 1.28666L8.40657 1.20667ZM8.80688 1.20667V1.46667L9.18095 1.82L9.08251 1.94667L8.68876 1.52H8.28845L8.78064 1.21333L8.80688 1.20667Z" fill="#D22630"/>
<path d="M7.56658 1.73333L7.71752 1.86666L7.58627 1.94L7.44189 1.81333L7.56658 1.73333ZM7.94064 1.73333V2L8.33439 2.34666L8.23596 2.45333L7.84221 2.07333H7.44846L7.94064 1.73333ZM9.92252 0.626663H9.50252L9.27939 0.879997H8.85939L8.55752 1.01333L8.61002 1.16L8.85939 0.999997H9.03002L9.42377 1.50666L9.92252 1.25333V0.626663Z" fill="#D22630"/>
<path d="M7.78975 4.23332L7.61912 4.38666L7.46818 4.28666L7.63881 4.13332L7.396 3.97999H7.88818L8.28193 3.59999L8.41318 3.75332L8.00631 4.13332V4.38666L7.78975 4.23332Z" fill="#383739"/>
<path d="M8.58382 4.28667L8.41319 4.46L8.26226 4.36L8.43288 4.20667L8.18351 4.06H8.68226L9.07601 3.68L9.20726 3.80667L8.83319 4.18V4.43333L8.58382 4.28667ZM7.73726 3.78L7.56663 3.93333L7.39601 3.82667L7.56663 3.68L7.34351 3.52667H7.84226L8.23601 3.14667L8.36069 3.28L7.96694 3.65333V3.90667L7.73726 3.78Z" fill="#383739"/>
<path d="M9.9225 5.01333H9.5025L9.27937 4.78667H8.83313L8.53125 4.63334L8.61 4.43334L8.87906 4.58667H9.01031L9.45 4.08L9.94875 4.38667L9.9225 5.01333Z" fill="#383739"/>
<path d="M7.61251 4.36L7.76345 4.20666L7.63876 4.13333L7.49438 4.28666L7.61251 4.36ZM8.01282 4.33333V4.10666L8.38689 3.72666L8.28845 3.62666L7.8947 4.00666H7.49438L7.98657 4.34L8.01282 4.33333ZM8.40657 4.43333L8.55751 4.28666L8.43282 4.20666L8.28845 4.36L8.40657 4.43333ZM8.80688 4.40666V4.16L9.18095 3.80666L9.08251 3.70666L8.68876 4.08H8.28845L8.78064 4.41333L8.80688 4.40666Z" fill="#D22630"/>
<path d="M7.56658 3.90666L7.71752 3.75332L7.58627 3.67999L7.44189 3.82666L7.56658 3.90666ZM7.94064 3.87999V3.65332L8.33439 3.27332L8.23596 3.17332L7.84221 3.55332H7.44846L7.94064 3.87999ZM9.92252 4.98666H9.50252L9.27939 4.75999H8.85939L8.55752 4.61332L8.61002 4.47999L8.85939 4.61332H9.03002L9.45002 4.10666L9.92252 4.38666V4.98666Z" fill="#D22630"/>
<path d="M7.51408 2.11333L7.31721 2.04666L7.04814 2.21999V2.26666L6.62158 2.81999L7.04814 3.35333V3.39999L7.29096 3.59999L7.51408 3.53333L7.39596 3.42666V3.27333L7.44189 3.22666H7.66502V2.41999H7.41564L7.39596 2.36666V2.19999L7.51408 2.11333Z" fill="#383739"/>
<path d="M7.06783 2.24L7.3172 2.06667L7.46814 2.11333L7.3697 2.19333V2.36667L7.41564 2.44667H7.63876V3.2H7.41564L7.3697 3.27333V3.45333L7.46814 3.5L7.3172 3.58L7.06783 3.4V3.35333L6.64783 2.82L7.06783 2.26667V2.24Z" fill="#D22630"/>
<path d="M12.0553 1.41334L12.2325 1.23334L12.3769 1.33334L12.2325 1.51334L12.4294 1.64H11.9569L11.5631 2.04L11.4319 1.88667L11.8322 1.51334V1.26L12.0553 1.41334Z" fill="#383739"/>
<path d="M11.2612 1.33333L11.4384 1.18666L11.5828 1.28666L11.4384 1.43333L11.6353 1.56666H11.1562L10.7625 1.96666L10.6312 1.81333L11.0315 1.43333V1.18666L11.2612 1.33333ZM12.1078 1.83999L12.2784 1.68666L12.4556 1.81999L12.2784 1.96666L12.5015 2.09333H12.0094L11.6353 2.51999L11.5106 2.36666L11.9044 1.99333V1.73333L12.1078 1.83999Z" fill="#383739"/>
<path d="M9.92249 0.626663H10.3425L10.5919 0.826663H11.0119L11.34 1.00666L11.2612 1.18666L10.9659 1.03333H10.8412L10.395 1.54L9.92249 1.26V0.626663Z" fill="#383739"/>
<path d="M12.2325 1.26L12.0816 1.41333L12.2063 1.48666L12.3572 1.36L12.2325 1.26ZM11.8585 1.31333V1.51333L11.4647 1.88666L11.5632 1.99333L11.9569 1.61333H12.3507L11.8585 1.28V1.31333ZM11.4122 1.20667L11.2613 1.34L11.3925 1.43333L11.5369 1.28666L11.4122 1.20667ZM11.0382 1.20667V1.46667L10.6707 1.82L10.7691 1.94667L11.1628 1.52H11.5566L11.0644 1.21333L11.0382 1.20667Z" fill="#D22630"/>
<path d="M12.2784 1.73333L12.134 1.86666L12.2522 1.94L12.4031 1.81333L12.2784 1.73333ZM11.9109 1.73333V2L11.5106 2.34666L11.609 2.45333L12.0028 2.07333H12.4031L11.9109 1.73333ZM9.92249 0.633331H10.3425L10.5656 0.886665H10.9922L11.2875 1.02L11.235 1.16666L10.9922 1.01333H10.8412L10.395 1.52L9.92249 1.26666V0.633331Z" fill="#D22630"/>
<path d="M12.0553 4.23332L12.2325 4.38666L12.3769 4.28666L12.2325 4.13332L12.4294 3.97999H11.9569L11.5631 3.59999L11.4319 3.75332L11.8322 4.13332V4.38666L12.0553 4.23332Z" fill="#383739"/>
<path d="M11.2612 4.28667L11.4384 4.46L11.5828 4.36L11.4384 4.20667L11.6353 4.06H11.1562L10.7625 3.68L10.6312 3.80667L11.0315 4.18V4.43333L11.2612 4.28667ZM12.1078 3.78L12.2719 3.93333L12.449 3.82667L12.2719 3.68L12.495 3.52667H12.0094L11.6156 3.14667L11.4844 3.28L11.8781 3.65333V3.90667L12.1078 3.78Z" fill="#383739"/>
<path d="M9.92249 5.01333H10.3425L10.5919 4.78667H11.0119L11.34 4.63334L11.2612 4.43334L10.9659 4.58667H10.8412L10.395 4.08L9.92249 4.38667V5.01333Z" fill="#383739"/>
<path d="M12.2325 4.36L12.075 4.2L12.2063 4.13333L12.3572 4.28666L12.2325 4.36ZM11.8585 4.33333V4.10666L11.4647 3.72666L11.5632 3.62666L11.9569 4.00666H12.3507L11.8585 4.33333ZM11.4385 4.43333L11.2875 4.28666L11.4122 4.20666L11.5632 4.36L11.4385 4.43333ZM11.0644 4.40666V4.16L10.6707 3.82666L10.7625 3.73333L11.1563 4.11333H11.55L11.0578 4.44666L11.0644 4.40666Z" fill="#D22630"/>
<path d="M12.2784 3.90666L12.134 3.75332L12.2522 3.67999L12.4031 3.82666L12.2784 3.90666ZM11.9109 3.87999V3.65332L11.5106 3.27332L11.609 3.17332L12.0028 3.55332H12.4031L11.9109 3.87999ZM9.92249 4.98666H10.3425L10.5656 4.75999H10.9922L11.2875 4.61332L11.235 4.47999L10.9922 4.61332H10.8412L10.395 4.10666L9.92249 4.38666V4.98666Z" fill="#D22630"/>
<path d="M12.3309 2.11333L12.5277 2.04666L12.8034 2.21999V2.26666L13.2234 2.81999L12.8034 3.35333V3.39999L12.554 3.59999L12.3309 3.53333L12.4556 3.42666V3.27333L12.4031 3.22666H12.1799V2.41999H12.4293L12.4556 2.36666V2.19999L12.3309 2.11333Z" fill="#383739"/>
<path d="M12.7771 2.24L12.5277 2.06667L12.3768 2.11333L12.4752 2.19333V2.36667L12.4293 2.44667H12.2062V3.2H12.4293L12.4752 3.27333V3.45333L12.3768 3.5L12.5277 3.58L12.7771 3.4V3.35333L13.1971 2.82L12.7771 2.26667V2.24Z" fill="#D22630"/>
<path d="M7.14652 3.27334L7.04808 3.17334V3.13334L6.79871 2.82667L7.04808 2.52667V2.46667L7.14652 2.36667L7.36964 2.54667H7.23839L7.41558 2.72H7.80933L8.13746 2.46667V1.81334H8.90527L9.82402 1.23334V1.08667L9.67308 1.00667L9.50246 1.14V1.20667L9.37121 1.03334L9.62714 0.833336L9.89621 0.653336H9.99464L10.244 0.833336H10.2965L10.5459 1.03334L10.4146 1.20667L10.395 1.14L10.2178 1.00667H10.1718L10.0209 1.10667V1.26667L10.9396 1.84667H11.7337V2.5L12.029 2.75334H12.4228L12.6 2.58H12.5015L12.6984 2.4L12.8034 2.5V2.55334L13.0462 2.85334L12.8034 3.15334V3.20667L12.6984 3.30667L12.5015 3.13334H12.6L12.4293 2.95334H12.0356L11.7337 3.20667V3.86H10.9134L9.99464 4.41334V4.56667L10.1456 4.66667H10.1718L10.3425 4.56667V4.49334L10.4737 4.66667L10.244 4.84667H10.2178L9.94871 5.04667H9.84371L9.59433 4.84667H9.54183L9.29902 4.64667L9.44339 4.49334V4.56667L9.62058 4.66667H9.64683L9.79121 4.56667V4.41334L8.87246 3.86H8.10464V3.2L7.78308 2.94667H7.38933L7.21871 3.13334H7.34339L7.14652 3.27334Z" fill="#383739"/>
<path d="M9.92245 4.66666L10.0471 4.73333L9.92245 4.81333V4.66666ZM9.62714 4.78666L9.87651 4.98666H9.92245V4.84L9.77808 4.73333L9.92901 4.62666V4.33333L8.93808 3.73333H8.2162V3.12666L7.8487 2.82H7.27776L7.14651 3L7.00214 2.82H6.82495L7.06776 3.1V3.14666L7.14651 3.25333L7.29089 3.12H7.22526V3.1L7.39589 2.9H7.81589L8.1637 3.14666V3.80666H8.90526L9.85026 4.38666V4.56L9.69933 4.66H9.62714L9.4762 4.56V4.51333L9.37776 4.61333L9.57464 4.78666H9.62714ZM7.14651 2.67333L7.24495 2.8H7.02183L7.14651 2.67333ZM9.92245 0.833331L9.82401 0.906665L9.92245 0.979998V0.833331ZM12.6 2.84666L12.6984 2.94666L12.8296 2.82L12.6 2.84666ZM10.2178 0.833331L9.97495 0.633331H9.92245V0.779998L10.0734 0.913331L9.92245 1.00666V1.26666L10.9134 1.86666H11.6353V2.52666L12.0093 2.8H12.5803L12.6984 2.64666L12.8493 2.8H13.0265L12.7771 2.54666V2.46666L12.6984 2.4L12.554 2.52H12.6262L12.4556 2.74666H12.029L11.7075 2.49333V1.81333H10.92L10.0012 1.26V1.08666L10.1456 0.979998H10.2178L10.3687 1.08666V1.13333L10.4671 1.00666L10.2703 0.833331H10.2178Z" fill="#FFC72C"/>
<path d="M9.92245 4.81333L9.82401 4.74L9.92245 4.66V4.81333ZM7.24495 2.82L7.14651 2.95333L7.01526 2.82H7.24495ZM10.2178 4.78666L9.97495 4.98666H9.92245V4.84L10.0734 4.74L9.92245 4.63333V4.33333L10.9134 3.73333H11.6353V3.12666L12.0093 2.82H12.5803L12.6984 3L12.8493 2.82H13.0265L12.7771 3.1V3.14666L12.6984 3.25333L12.554 3.12H12.6262V3.1L12.4556 2.9H12.029L11.7075 3.14666V3.80666H10.92L9.97495 4.38666V4.56L10.1193 4.66H10.1981L10.3425 4.56V4.51333L10.4409 4.61333L10.244 4.78666H10.2178ZM12.6984 2.67333L12.6 2.8H12.8231L12.6984 2.67333ZM9.62714 0.833331L9.87651 0.633331H9.92245V0.779998L9.77151 0.913331L9.92245 1.00666V1.26666L8.93151 1.86666H8.20964V2.52666L7.84214 2.78H7.2712L7.13995 2.62666L6.99558 2.78H6.82495L7.06776 2.52666V2.45333L7.14651 2.37333L7.29089 2.50666H7.22526L7.39589 2.72666H7.81589L8.1637 2.47333V1.82H8.90526L9.87651 1.26666V1.09333L9.72558 0.986665H9.64683L9.49589 1.09333V1.14L9.39745 1.01333L9.59433 0.839998H9.64683L9.62714 0.833331ZM9.92245 1.00666L10.0471 0.933331L9.92245 0.859998V1.00666Z" fill="white"/>
<path d="M9.92256 2.82001V1.31334L8.93162 1.91334H8.236V2.52001L7.88818 2.80001H9.92256V4.30667L10.9135 3.70667H11.6157V3.12667L11.9635 2.82001H9.92256Z" fill="#00843D"/>
<path d="M7.88818 2.82001L8.236 3.12667V3.70667H8.93162L9.92256 4.30667V2.80001H11.9569L11.6091 2.52001V1.92001H10.9135L9.92912 1.31334V2.82001H7.88818Z" fill="#D22630"/>
<path d="M8.8791 2.09333L8.70847 1.91333L8.55753 2.04666L8.70847 2.19333L8.5116 2.32H8.97753L9.37128 2.72L9.50253 2.57333L9.10878 2.19333V1.93333L8.8791 2.09333ZM10.966 3.55333L11.1366 3.70666L11.3138 3.6L11.1366 3.45333L11.3335 3.3H10.9135L10.4935 2.92L10.3688 3.05333L10.7625 3.42666V3.68L10.966 3.55333ZM8.8791 3.55333L8.70847 3.70666L8.55753 3.6L8.70847 3.45333L8.5116 3.3H8.97753L9.37128 2.92L9.50253 3.05333L9.10878 3.42666V3.68L8.8791 3.55333ZM10.966 2.08666L11.1366 1.91333L11.3138 2.04666L11.1366 2.19333L11.3335 2.32H10.9135L10.4935 2.72L10.3688 2.57333L10.7625 2.19333V1.93333L10.966 2.08666Z" fill="#383739"/>
<path d="M11.1366 3.67999L10.9922 3.52666L11.1169 3.45333L11.2612 3.59999L11.1366 3.67999ZM10.7691 3.65333V3.42666L10.3753 3.04666L10.4672 2.94666L10.8609 3.32666H11.2612L10.7691 3.65333ZM8.68218 1.96666L8.83312 2.09333L8.70187 2.16666L8.5575 2.03999L8.68218 1.96666ZM9.05625 1.96666V2.21999L9.45 2.57333L9.35156 2.67333L8.95781 2.29333H8.56406L9.05625 1.99333V1.96666Z" fill="#D22630"/>
<path d="M11.1366 1.96666L10.9922 2.09333L11.1169 2.16666L11.2612 2.03999L11.1366 1.96666ZM10.7691 1.96666V2.21999L10.3753 2.57333L10.4672 2.67333L10.8609 2.29333H11.2612L10.7691 1.96666ZM8.68218 3.69999L8.83312 3.55333L8.70187 3.47999L8.5575 3.62666L8.68218 3.69999ZM9.05625 3.67999V3.45333L9.45 3.07333L9.35156 2.97333L8.95781 3.35333H8.56406L9.05625 3.67999Z" fill="#00843D"/>
<path d="M10.9594 2.82L9.92906 3.53333L8.88562 2.82666L9.93562 2.12L10.9594 2.82Z" fill="#383739"/>
<path d="M9.92255 2.14L8.93161 2.8H10.9135L9.92255 2.14ZM9.92255 2.14V3.47333L10.9069 2.82H8.92505L9.91599 3.48L9.92255 2.14Z" fill="white"/>
<path d="M10.1982 3.04667V3.24667H9.67316V3.04667H9.30566V2.57334H9.67316V2.37334H10.1719V2.57334H10.546V3.06667L10.1982 3.04667Z" fill="#383739"/>
<path d="M9.67316 2.39999V2.59999H9.30566V2.79999H9.92254V2.39999H9.67316ZM9.92254 2.79999H10.546V2.59999H10.1719V2.39999H9.92254V2.79999ZM9.30566 2.81999V3.04666H9.67316V3.22666H9.92254V2.82666L9.30566 2.81999ZM9.92254 3.21999H10.1719V3.04666H10.546V2.81999H9.92254V3.21999Z" fill="#D22630"/>
<path d="M11.7075 10.86V10.56H12.554V10.2267H13.3744V7.43333H12.554V7.1H11.7075V6.8H10.8675V6.5H8.97749V6.8H8.13749V7.10667H7.28436V7.43333H6.47717V10.2333H7.28436V10.58H8.13749V10.8333H8.97749V11.14H10.8675V10.8333L11.7075 10.86Z" fill="#383739"/>
<path d="M9.0037 6.52667V6.80001H8.18338V7.10667H7.34995V7.43334H6.52307V10.2067H7.34995V10.5067H8.18995V10.84H9.03651V11.14H10.874V10.8333H11.714V10.5333H12.5606V10.2H13.3874V7.43334H12.5474V7.13334H11.6549V6.82667H10.8084V6.53334L9.0037 6.52667ZM9.25307 6.75334H10.6181V7.05334H11.4581V7.36001H12.3046V7.68667H13.1512V9.98001H12.3046V10.3333H11.4581V10.58H10.6181V10.8867H9.22682V10.58H8.38682V10.3333H7.54026V10H6.71995V7.71334H7.54682V7.38001H8.39338V7.05334H9.23338L9.25307 6.75334Z" fill="#FFC72C"/>
<path d="M8.43278 10.58V10.28H7.56653V9.98H6.71997V7.71333H7.56653V7.38H8.43278V7.08H9.27935V6.78H10.6181V7.05333H11.4581V7.36H12.3047V7.68667H13.1512V9.95333H12.3047V10.2533H11.4122V10.5867H10.5656V10.9133H9.22685V10.58H8.43278Z" fill="#D22630"/>
<path d="M8.60996 7.30667L8.38684 7.13334V7.46L8.18996 7.58667V7.38667L7.99309 7.58667L7.78965 7.38667V7.58667L7.54027 7.45334V7.73334L7.36965 7.88667V7.71334L7.12027 7.86L6.9234 7.71334V7.88667L6.69371 7.73334V8.62H6.44434V9.07334H6.69371V9.95334L6.91684 9.8V10L7.13996 9.82667L7.36309 10V9.8L7.53371 9.95334V10.2533L7.78309 10.1067V10.3067L7.97996 10.1067L8.17684 10.3067V10.08L8.37371 10.2067V10.5333L8.6034 10.3533V10.58L8.82652 10.38L9.0234 10.58V10.3333L9.22027 10.48V10.8333L9.52215 10.56V10.86L9.9159 10.6067L10.3096 10.86V10.58L10.6115 10.8333V10.5067L10.8084 10.3533V10.58L11.0053 10.38L11.2546 10.58V10.3333L11.4515 10.5067V10.1733L11.6484 10.0533V10.2533L11.8518 10.0533L12.0487 10.2533V10.08L12.2981 10.2267V9.93334L12.4687 9.78V9.98L12.7181 9.80667L12.915 9.98667V9.78667L13.1446 9.93334V9.08H13.3875V8.64667H13.1446V7.76667L12.9215 7.92V7.73334L12.6918 7.88667L12.4687 7.73334V7.91334L12.2981 7.76V7.48667L12.0487 7.60667V7.40667L11.8518 7.60667L11.655 7.40667V7.60667L11.4581 7.48667V7.15334L11.2284 7.33334V7.10667L11.0315 7.30667L10.7821 7.10667V7.33334L10.6115 7.18V6.85334L10.3162 7.10667V6.8L9.92246 7.05334L9.52215 6.8V7.05334L9.22027 6.8V7.13334L9.0234 7.28V7.05334L8.82652 7.25334L8.6034 7.05334L8.60996 7.30667Z" fill="#383739"/>
<path d="M6.94311 7.93333V7.73333L7.13999 7.88666L7.34342 7.73333V7.93333L7.5403 7.76V9.9L7.34342 9.75333V9.92666L7.14655 9.77333L6.94967 9.92666V9.75333L6.71999 9.9V9.02H6.47717V8.64H6.71999V7.76L6.94311 7.93333ZM8.63624 7.13333L8.83311 7.30666L9.00374 7.13333V7.36L9.22686 7.18V10.4667L9.00374 10.3133V10.54L8.83311 10.36L8.63624 10.54V10.3133L8.41311 10.4867V7.21333L8.63624 7.36666V7.13333ZM11.2153 7.13333L11.0381 7.30666L10.8412 7.13333V7.36L10.6181 7.18V10.4667L10.8412 10.3133V10.54L11.0381 10.36L11.2153 10.54V10.3133L11.4384 10.4867V7.21333L11.2153 7.36666V7.13333ZM12.9019 7.93333V7.73333L12.705 7.88666L12.5081 7.73333V7.93333L12.3047 7.76V9.9L12.5015 9.75333V9.92666L12.6984 9.77333L12.8953 9.92666V9.75333L13.125 9.9V9.02H13.3744V8.64H13.125V7.76L12.9019 7.93333Z" fill="#00843D"/>
<path d="M7.80934 7.46L7.98653 7.60667L8.16372 7.46V7.63334L8.41309 7.48667V10.18L8.16372 10.0267V10.2267L7.98653 10.0533L7.8159 10.2267V10.0267L7.56653 10.18V7.48667L7.8159 7.63334L7.80934 7.46ZM9.5484 7.12667L9.25309 6.88V10.8133L9.5484 10.5333V10.8333L9.92247 10.58L10.2965 10.8333V10.5067L10.5918 10.76V6.90667L10.2965 7.15334V6.8L9.92247 7.05334L9.5484 6.8V7.12667ZM12.029 7.46L11.8584 7.60667L11.6878 7.46V7.63334L11.4384 7.48667V10.18L11.6878 10.0267V10.2267L11.8584 10.0533L12.0553 10.2267V10.0267L12.2784 10.18V7.48667L12.029 7.63334V7.46Z" fill="#FFC72C"/>
<path d="M7.04811 8.43999L7.14655 8.49332C7.16624 8.49332 7.21874 8.49332 7.24499 8.43999C7.31717 8.36666 7.31717 8.21332 7.31717 8.11332L7.19249 8.23999L7.14655 8.11332L7.0678 8.23999L6.96936 8.11332C6.96936 8.21332 6.96936 8.36666 7.04811 8.44666V8.43999ZM7.94061 8.21332L7.86186 8.13999V8.00666L7.71749 8.16666L7.9603 8.41332L8.26217 8.16666L8.11124 8.01332V8.13999L8.03905 8.21332V7.95999L8.16374 7.85999L7.98655 7.71332L7.81592 7.85999L7.94061 7.99332V8.21332ZM8.75436 7.95999L8.70842 7.88666V7.73332L8.53124 7.88666L8.83311 8.16666L9.08249 7.91332L8.93155 7.73332V7.88666L8.87905 7.93999V7.68666L9.0103 7.60666L8.83311 7.45999L8.65592 7.60666L8.75436 7.71332V7.95999Z" fill="#383739"/>
<path d="M7.14654 8.16667L7.19248 8.26667L7.29092 8.16667C7.29092 8.28667 7.27123 8.39333 7.22529 8.41333C7.21612 8.42575 7.20423 8.43583 7.19057 8.44278C7.1769 8.44972 7.16183 8.45333 7.14654 8.45333C7.13126 8.45333 7.11619 8.44972 7.10252 8.44278C7.08885 8.43583 7.07696 8.42575 7.06779 8.41333C7.02186 8.39333 6.99561 8.28667 6.99561 8.16667L7.09404 8.26667L7.14654 8.16667ZM8.85279 7.68667V8.01333L8.95779 7.88667V7.81333L9.05623 7.91333L8.80686 8.16667L8.55748 7.91333L8.68873 7.81333V7.91333L8.78061 8.04V7.70667L8.68217 7.64L8.83311 7.50667L8.95779 7.64L8.85279 7.68667Z" fill="white"/>
<path d="M8.01281 7.95999V8.26666L8.1375 8.16666V8.05999L8.23593 8.16666L7.98656 8.41333L7.73718 8.16666L7.84218 8.05999V8.16666L7.94062 8.26666V7.95999L7.84218 7.85999L7.98656 7.75999L8.11781 7.85999L8.01281 7.95999Z" fill="#D22630"/>
<path d="M12.7969 8.43999L12.6984 8.49332C12.6765 8.50221 12.6547 8.48444 12.6328 8.43999C12.5278 8.36666 12.5278 8.21332 12.5278 8.11332L12.6525 8.23999L12.6984 8.11332L12.7772 8.23999L12.8756 8.11332C12.8756 8.21332 12.8756 8.36666 12.8034 8.44666L12.7969 8.43999ZM11.9306 8.21332L11.9831 8.13999V8.00666L12.134 8.16666L11.8847 8.41332L11.5828 8.16666L11.7337 8.01332V8.13999L11.8059 8.21332V7.95999L11.6878 7.85999L11.8584 7.71332L12.029 7.85999L11.9306 7.99332V8.21332ZM11.0906 7.95999L11.1365 7.88666V7.73332L11.3137 7.88666L11.0381 8.16666L10.7428 7.91332L10.9134 7.73332V7.88666L10.9659 7.93999V7.68666L10.8675 7.60666L11.0381 7.45999L11.2153 7.60666L11.084 7.71332L11.0906 7.95999Z" fill="#383739"/>
<path d="M12.6984 8.16667L12.6524 8.26667L12.554 8.16667C12.554 8.28667 12.5803 8.39333 12.6262 8.41333C12.6354 8.42454 12.647 8.43356 12.66 8.43974C12.6731 8.44592 12.6873 8.44913 12.7017 8.44913C12.7161 8.44913 12.7303 8.44592 12.7433 8.43974C12.7563 8.43356 12.7679 8.42454 12.7771 8.41333C12.8231 8.39333 12.8493 8.28667 12.8493 8.16667L12.7771 8.26667L12.6984 8.16667ZM10.9921 7.68667V8.01333L10.8937 7.88667V7.81333L10.7887 7.91333L11.0381 8.16667L11.2874 7.91333L11.1628 7.81333V7.91333L11.0643 8.04V7.70667L11.1628 7.64L11.0381 7.50667L10.8937 7.64L10.9921 7.68667Z" fill="white"/>
<path d="M11.8321 7.95999V8.26666L11.7337 8.16666V8.05999L11.6353 8.16666L11.8846 8.41333L12.134 8.16666L12.0028 8.05999V8.16666L11.9109 8.26666V7.95999L12.0093 7.85999L11.8584 7.75999L11.7337 7.85999L11.8321 7.95999Z" fill="#D22630"/>
<path d="M10.244 8.06666L10.1718 7.91333L10.395 7.71333L10.1718 7.53333V7.66L10.0996 7.73333V7.48666L10.2965 7.35333L9.92245 7.05333L9.54839 7.30666L9.74526 7.48666V7.71333L9.67964 7.63333V7.50666L9.44995 7.68666L9.69933 7.88666L9.60089 8.01333L10.244 8.06666Z" fill="#383739"/>
<path d="M9.64682 8.03999L9.72557 7.90666L9.4762 7.70666L9.65338 7.58666V7.65999L9.77151 7.78666V7.48666L9.60088 7.35333L9.92901 7.10666L10.244 7.35999L10.0734 7.48666V7.81333L10.1981 7.67999V7.61333L10.3687 7.73333L10.1193 7.93333L10.2178 8.06666L9.64682 8.03999Z" fill="#D22630"/>
<path d="M9.75183 7.35999L9.92246 7.48666L10.0996 7.35332L9.92246 7.23332L9.75183 7.35999Z" fill="#383739"/>
<path d="M9.92254 7.25999L10.0472 7.35999L9.92254 7.43333L9.79785 7.35999L9.92254 7.25999Z" fill="#00843D"/>
<path d="M7.04811 9.22001C7.06029 9.20554 7.07537 9.19389 7.09235 9.18584C7.10933 9.17779 7.12781 9.17353 7.14655 9.17334C7.16624 9.17334 7.21874 9.17334 7.24499 9.22001C7.31717 9.30001 7.31717 9.44667 7.31717 9.55334L7.19249 9.44667L7.14655 9.54667L7.0678 9.44667L6.96936 9.54667C6.96936 9.44667 6.96936 9.30001 7.04811 9.22001ZM7.94061 9.44667L7.86186 9.52667V9.65334L7.71749 9.50001L7.9603 9.24667L8.26217 9.50001L8.11124 9.65334V9.52001L8.03905 9.45334V9.70001L8.16374 9.80001L7.98655 9.95334L7.81592 9.80001L7.94061 9.67334V9.44667ZM8.75436 9.70001L8.70842 9.77334V9.92667L8.53124 9.77334L8.83311 9.50001L9.08249 9.77334L8.93155 9.92667V9.77334L8.87905 9.72667V9.98001L9.0103 10.0533L8.83311 10.2067L8.65592 10.0533L8.75436 9.95334V9.70001Z" fill="#383739"/>
<path d="M7.14654 9.5L7.19248 9.4L7.29092 9.5C7.29092 9.36666 7.26904 9.28222 7.22529 9.24666C7.21612 9.23424 7.20423 9.22416 7.19057 9.21722C7.1769 9.21028 7.16183 9.20667 7.14654 9.20667C7.13126 9.20667 7.11619 9.21028 7.10252 9.21722C7.08885 9.22416 7.07696 9.23424 7.06779 9.24666C7.02404 9.28222 6.99998 9.36666 6.99561 9.5L7.09404 9.4L7.14654 9.5ZM8.85279 9.98V9.64666L8.95779 9.78V9.88L9.05623 9.77333L8.80686 9.52666L8.55748 9.77333L8.68873 9.88V9.77333L8.78061 9.65333V9.98L8.68217 10.0533L8.83311 10.18L8.95779 10.0533L8.85279 9.98Z" fill="white"/>
<path d="M8.01281 9.70001V9.40001L8.1375 9.50001V9.60001L8.23593 9.50001L7.98656 9.24667L7.73718 9.50001L7.84218 9.60001V9.50001L7.94062 9.40001V9.70001L7.84218 9.80001L7.98656 9.90001L8.11781 9.80001L8.01281 9.70001Z" fill="#D22630"/>
<path d="M12.7969 9.22C12.7847 9.20554 12.7696 9.19389 12.7526 9.18584C12.7356 9.17779 12.7172 9.17353 12.6984 9.17334C12.6765 9.16445 12.6547 9.18 12.6328 9.22C12.5278 9.3 12.5278 9.44667 12.5278 9.55334L12.6525 9.44667L12.6984 9.54667L12.7772 9.44667L12.8756 9.54667C12.8756 9.44667 12.8756 9.3 12.8034 9.22H12.7969ZM11.9306 9.44667L11.9831 9.52667V9.65334L12.134 9.5L11.8847 9.24667L11.5828 9.5L11.7337 9.65334V9.52L11.8059 9.45334V9.7L11.6878 9.8L11.8584 9.95334L12.029 9.8L11.9306 9.67334V9.44667ZM11.0906 9.7L11.1365 9.77334V9.92667L11.3137 9.77334L11.0381 9.5L10.7428 9.77334L10.9134 9.92667V9.77334L10.9659 9.72667V9.98L10.8675 10.0533L11.0381 10.2067L11.2153 10.0533L11.084 9.95334L11.0906 9.7Z" fill="#383739"/>
<path d="M12.6984 9.50001L12.6524 9.40001L12.554 9.50001C12.554 9.36667 12.5781 9.28223 12.6262 9.24667C12.6354 9.23546 12.647 9.22645 12.66 9.22027C12.6731 9.21408 12.6873 9.21088 12.7017 9.21088C12.7161 9.21088 12.7303 9.21408 12.7433 9.22027C12.7563 9.22645 12.7679 9.23546 12.7771 9.24667C12.8209 9.28223 12.8449 9.36667 12.8493 9.50001L12.7771 9.40001L12.6984 9.50001ZM10.9921 9.98V9.64667L10.8937 9.78V9.88L10.7887 9.77334L11.0381 9.52667L11.2874 9.77334L11.1628 9.88V9.77334L11.0643 9.65334V9.98L11.1628 10.0533L11.0381 10.18L10.8937 10.0533L10.9921 9.98Z" fill="white"/>
<path d="M11.8321 9.70001V9.40001L11.7337 9.50001V9.60001L11.6353 9.50001L11.8846 9.24667L12.134 9.50001L12.0028 9.60001V9.50001L11.9109 9.40001V9.70001L12.0093 9.80001L11.8584 9.90001L11.7337 9.80001L11.8321 9.70001Z" fill="#D22630"/>
<path d="M10.244 9.62666L10.1718 9.75333L10.395 9.95333L10.1718 10.1267V10L10.0996 9.93333V10.18L10.2965 10.3067L9.92245 10.58L9.54839 10.3333L9.74526 10.1533V9.93333L9.67964 10.0067V10.14L9.44995 9.96L9.69933 9.76L9.60089 9.62666H10.244Z" fill="#383739"/>
<path d="M9.64682 9.65334L9.72557 9.75334L9.4762 9.95334L9.65338 10.08V10L9.77151 9.88V10.18L9.60088 10.3067L9.92901 10.56L10.244 10.3067L10.0734 10.1733V9.88L10.1981 10V10.08L10.3687 9.94667L10.1193 9.74667L10.2178 9.65334H9.64682Z" fill="#D22630"/>
<path d="M9.75183 10.3333L9.92246 10.18L10.0996 10.3067L9.92246 10.4333L9.75183 10.3333Z" fill="#383739"/>
<path d="M9.92254 10.4L10.0472 10.3067L9.92254 10.2267L9.79785 10.3067L9.92254 10.4Z" fill="#00843D"/>
<path d="M12.9018 8.69333H12.554V8.56666H11.4121L10.6181 8.06H9.22684L8.43934 8.56666H7.28434V8.72H6.93652V8.97333H7.28434V9.14666H8.42621L9.22027 9.65333H10.6115L11.399 9.14666H12.5475V8.99333H12.8953L12.9018 8.69333Z" fill="#383739"/>
<path d="M9.22686 8.06666L8.43936 8.56666H7.32374V8.72H6.96936V8.94666H7.31717V9.09333H8.4328L9.22686 9.6H10.6181L11.4056 9.09333H12.5344V8.94666H12.9084V8.72H12.5344V8.56666H11.4187L10.6247 8.06L9.22686 8.06666ZM9.22686 8.13333H10.5919L11.34 8.62V8.68666H12.1275V8.99333H11.3137V9.07333L10.5919 9.52666H9.25311L8.51155 9.07333V8.99333H7.71749V8.69333H8.53124V8.62L9.22686 8.13333Z" fill="#D22630"/>
<path d="M10.5919 8.13333L11.2875 8.64V8.69333H12.1078V8.94666H11.2875V9.04666L10.5919 9.52666H9.25315L8.55752 9.04666V8.97333H7.74377V8.72H8.56409V8.62L9.25315 8.13333H10.5919Z" fill="#D22630"/>
<path d="M8.90525 9.09333L9.20057 9.34667L9.39744 9.17333L9.30557 9.09333L9.20057 9.14667L9.13494 9.09333L10.2703 8.21333H10.0471L8.90525 9.09333ZM9.57463 9.44667H9.79775L10.9396 8.56667L10.6443 8.31333L10.4474 8.49333L10.5656 8.56667L10.6443 8.51333L10.7165 8.56667L9.57463 9.44667ZM10.0734 9.44667H10.2703L9.12838 8.56667L9.20057 8.51333L9.30557 8.56667L9.404 8.49333L9.20713 8.34L8.90525 8.56667L10.0734 9.44667ZM10.7165 9.09333L10.6443 9.14667L10.5656 9.09333L10.4409 9.17333L10.6378 9.32L10.9396 9.09333L9.79775 8.21333H9.54838L10.7165 9.09333ZM8.68213 8.84667L8.879 8.97333L9.07588 8.84L8.879 8.69333L8.68213 8.84667ZM9.72557 8.82L9.92244 8.97333L10.1193 8.84L9.92244 8.69333L9.72557 8.82ZM11.1693 8.82L10.9659 8.97333L10.769 8.84L10.9659 8.69333L11.1693 8.82Z" fill="#383739"/>
<path d="M10.9134 9.09334L10.6443 9.29334L10.4671 9.17334L10.5656 9.12001L10.6443 9.17334L10.7428 9.09334L9.62714 8.24001H9.79777L10.9134 9.09334ZM10.2178 9.42667H10.0471L8.93152 8.56667L9.20058 8.36667L9.37777 8.49334L9.30558 8.54001L9.20058 8.49334L9.10214 8.56667L10.2178 9.42667ZM9.79777 9.42667H9.62714L10.7428 8.56667L10.6443 8.49334L10.5656 8.54001L10.4671 8.49334L10.6443 8.36001L10.8937 8.56667L9.79777 9.42667ZM10.0471 8.24001H10.2178L9.10214 9.09334L9.20058 9.17334L9.30558 9.12001L9.37121 9.17334L9.20058 9.30001L8.95777 9.10001L10.0471 8.24001Z" fill="#FFC72C"/>
<path d="M8.879 8.72L9.02994 8.84667L8.879 8.94667L8.70837 8.84667L8.879 8.72ZM9.929 8.72L10.0996 8.84667L9.92244 8.94667L9.75181 8.84667L9.929 8.72ZM10.9659 8.72L10.8149 8.84667L10.9659 8.94667L11.1365 8.84667L10.9659 8.72Z" fill="#00843D"/>
<path d="M6.32622 14.6133L6.25403 14.74L6.3984 14.84L6.25403 14.9667L6.32622 15.0667L6.49684 15.0933L6.64778 14.9667L7.06778 15.22V15.02L6.82497 14.84L7.06778 14.6867V14.4667L6.64778 14.72L6.49684 14.62L6.32622 14.6133ZM6.32622 13.86L6.25403 13.9867L6.3984 14.0867L6.25403 14.2133L6.32622 14.3133L6.49684 14.34L6.64778 14.2067L7.06778 14.46V14.26L6.82497 14.0867L7.06778 13.9333V13.7067L6.64778 13.96L6.49684 13.86H6.32622ZM6.32622 15.8267L6.25403 15.72L6.3984 15.6L6.25403 15.4933L6.32622 15.3733H6.49684L6.64778 15.4733L7.06778 15.22V15.4467L6.82497 15.6L7.06778 15.7733V15.9733L6.64778 15.72L6.49684 15.8533L6.32622 15.8267ZM13.5187 14.6133L13.5975 14.74L13.4465 14.84L13.5975 14.9667L13.5187 15.0667L13.3481 15.0933L13.1972 14.9667L12.7772 15.22V15.02L13.0265 14.84L12.7772 14.6867V14.4667L13.1972 14.72L13.3481 14.62L13.5187 14.6133ZM13.5187 13.86L13.5975 13.9867L13.4465 14.0867L13.5975 14.2133L13.5187 14.3133L13.3481 14.34L13.1972 14.2067L12.7772 14.46V14.26L13.0265 14.0867L12.7772 13.9333V13.7067L13.1972 13.96L13.3481 13.86H13.5187ZM13.5187 15.8267L13.5975 15.72L13.4465 15.6L13.5975 15.4933L13.5187 15.3733H13.3481L13.1906 15.4667L12.7706 15.2133V15.44L13.02 15.5933L12.7706 15.7667V15.9667L13.1906 15.7133L13.3415 15.8467L13.5187 15.8267ZM11.9109 12.6V12.9H12.134V13.0533H12.3572V12.8H12.1603V12.6H11.9109ZM12.554 13.1V13.3533H12.8034V13.48H13.0003V13.2267H12.8034V13.1H12.554ZM7.94059 12.6V12.9H7.71747V13.0533H7.49434V12.8H7.69122V12.6H7.94059ZM11.9109 17.1333V16.8333H12.134V16.7H12.3572V16.96H12.1603V17.16L11.9109 17.1333ZM7.94059 17.1333V16.8333H7.71747V16.7H7.49434V16.96H7.69122V17.16L7.94059 17.1333ZM12.554 16.6267V16.3333H12.8034V16.18H13.0003V16.4333H12.8034V16.6333L12.554 16.6267ZM7.28434 13.1V13.3533H7.04153V13.48H6.84465V13.2267H7.04153V13.1H7.28434ZM7.28434 16.6533V16.3533H7.04153V16.2H6.84465V16.4533H7.04153V16.6533H7.28434ZM10.7625 12.6L10.5853 12.42L10.4147 12.5733L10.559 12.7267L10.3622 12.9H10.6378L10.7362 12.8L10.8347 12.9H11.1628L10.9593 12.7333L11.1103 12.58L10.9331 12.4267L10.7625 12.6ZM9.9159 12.6L9.74528 12.42L9.56809 12.5733L9.71903 12.7267L9.54184 12.9H9.81747L9.9159 12.8L10.0143 12.9H10.29L10.1128 12.7267L10.2637 12.5733L10.0931 12.42L9.9159 12.6ZM9.09559 12.6L9.27278 12.42L9.42372 12.5733L9.27278 12.7267L9.46965 12.9H9.19403L9.09559 12.8L8.99715 12.9H8.67559L8.87247 12.7267L8.72809 12.5733L8.89872 12.42L9.0759 12.6H9.09559ZM10.7362 17.1333L10.5853 17.3333L10.4147 17.16L10.559 17.0333L10.3622 16.8333H10.6378L10.7362 16.9333L10.8347 16.8333H11.1628L10.9593 17.0333L11.1103 17.16L10.9331 17.3333L10.7362 17.1333ZM9.9159 17.1333L9.74528 17.3333L9.56809 17.16L9.71903 17.0333L9.54184 16.8333H9.81747L9.9159 16.9333L10.0143 16.8333H10.29L10.1128 17.0333L10.2637 17.16L10.0931 17.3333L9.9159 17.1333ZM9.09559 17.1333L9.27278 17.3333L9.42372 17.16L9.27278 17.0333L9.46965 16.8333H9.19403L9.09559 16.9333L8.99715 16.8333H8.67559L8.87247 17.0333L8.72809 17.16L8.89872 17.3333L9.0759 17.16L9.09559 17.1333Z" fill="#383739"/>
<path d="M7.04818 15.02V15.1933L6.65443 14.94L6.49693 15.0733H6.35255L6.2738 14.9667L6.42474 14.84L6.2738 14.74L6.35255 14.64H6.49693L6.64787 14.7667L7.04162 14.5133V14.6667L6.77255 14.84L7.04818 15.02ZM7.04818 14.26V14.44L6.65443 14.1867L6.49693 14.3133H6.35255L6.2738 14.2133L6.42474 14.08L6.2738 13.9867L6.35255 13.8867H6.49693L6.64787 14.0067L7.04162 13.76V13.9067L6.77255 14.0867L7.04818 14.26ZM7.04818 15.42V15.2667L6.65443 15.52L6.49693 15.3733H6.35255L6.2738 15.4733L6.4313 15.6L6.28037 15.72L6.35912 15.8H6.49693L6.64787 15.7L7.04162 15.9467V15.7733L6.77255 15.6L7.04818 15.42ZM12.8035 15.02V15.1933L13.1972 14.94L13.3744 15.0733H13.4926L13.5713 14.9667L13.4204 14.84L13.5713 14.74L13.4926 14.64H13.3941L13.2235 14.7667L12.8297 14.5133V14.6667L13.0988 14.84L12.8035 15.02ZM12.8035 14.26V14.44L13.1972 14.1867L13.3744 14.3133H13.4926L13.5713 14.2133L13.4204 14.08L13.5713 13.9867L13.4926 13.8867H13.3941L13.2235 14.0067L12.8297 13.76V13.9067L13.0988 14.0867L12.8035 14.26ZM12.8035 15.42V15.2667L13.1972 15.52L13.3744 15.3733H13.4926L13.5713 15.4733L13.4204 15.6L13.5713 15.72L13.4926 15.8H13.3941L13.2235 15.7L12.8297 15.9467V15.7733L13.0988 15.6L12.8035 15.42ZM12.1538 12.6V12.8H12.3507V13H12.1538V12.8533H11.911V12.6H12.1538ZM12.8232 13.1V13.28H13.0004V13.48H12.8232V13.3533H12.6001V13.1H12.8232ZM7.6913 12.6V12.8H7.49443V13H7.66505V12.8533H7.91443V12.6H7.6913ZM12.1538 17.1067V16.88H12.3507V16.68H12.1538V16.8067H11.911V17.06L12.1538 17.1067ZM7.73724 17.1067V16.88H7.54037V16.68H7.71755V16.8067H7.96037V17.06L7.73724 17.1067ZM12.8232 16.6067V16.4067H13.0004V16.2067H12.8232V16.3533H12.6001V16.6067H12.8232ZM7.06787 13.1V13.3H6.87099V13.5H7.04818V13.3533H7.2713V13.1H7.06787ZM7.06787 16.6333V16.4333H6.87099V16.2267H7.04818V16.38H7.2713V16.6267L7.06787 16.6333ZM10.5919 12.4467L10.7429 12.6267L10.9135 12.4467L11.0644 12.5733L10.9135 12.7267L11.0907 12.8733H10.8413L10.7429 12.7733L10.6444 12.8733H10.4213L10.5919 12.7267L10.441 12.5733L10.5919 12.4467ZM9.75193 12.4467L9.92255 12.6267L10.0997 12.4467L10.2179 12.5733L10.0735 12.7267L10.2441 12.8733H10.021L9.92255 12.7733L9.82412 12.8733H9.57474L9.77162 12.7267L9.62724 12.5733L9.75193 12.4467ZM9.25318 12.4467L9.10224 12.6267L8.93162 12.4467L8.78068 12.5733L8.93162 12.7267L8.78068 12.8733H8.97755L9.1088 12.7733L9.20068 12.8733H9.43037L9.25318 12.7333L9.40412 12.58L9.25318 12.4467ZM10.5919 17.2867L10.7429 17.1333L10.9135 17.2867L11.0644 17.1533L10.9135 17.0333L11.0907 16.86H10.8413L10.7429 16.96L10.6444 16.86H10.4213L10.5919 17.0333L10.441 17.16L10.5919 17.2867ZM9.75193 17.2867L9.92255 17.1333L10.0997 17.2867L10.2179 17.1533L10.0735 17.0333L10.2441 16.86H10.021L9.92255 16.96L9.82412 16.86H9.57474L9.77162 17.0333L9.62724 17.16L9.75193 17.2867ZM9.25318 17.2867L9.10224 17.1333L8.93162 17.2867L8.78068 17.1533L8.93162 17.0333L8.78068 16.86H8.97755L9.1088 16.96L9.20068 16.86H9.43037L9.25318 17.0333L9.40412 17.16L9.25318 17.2867Z" fill="#00843D"/>
<path d="M7.69122 16.3533V16.86H12.1537V16.3533H12.8034V13.3533H12.1537V12.8533H7.69122V13.3533H7.0481V16.3533H7.69122Z" fill="#383739"/>
<path d="M7.71756 12.8733V13.38H7.06787V16.3267H7.69131V16.8333H12.1538V16.3267H12.8035V13.3533H12.1538V12.8533H7.69131L7.71756 12.8733ZM8.01287 13.0733H11.8322V13.5533L12.0094 13.66H12.6001V16.0267H12.0094L11.8322 16.1533V16.6267H8.01287V16.1333L7.84225 16.0333H7.24506V13.6667H7.83568L8.01287 13.56V13.06V13.0733Z" fill="#FFC72C"/>
<path d="M8.03902 13.1V13.5333L8.60996 13.1H8.03902ZM11.2612 13.1L11.8059 13.5333V13.1H11.2612ZM7.2909 13.68V14.1133L7.8159 13.7133L7.2909 13.68ZM12.029 13.68L12.5803 14.1133V13.68H12.029ZM12.5803 15.6L12.029 16H12.5803V15.6ZM7.26465 15.6V16H7.8159L7.26465 15.6ZM8.01277 16.1733V16.6067H8.6034L8.01277 16.1733ZM11.8059 16.1733L11.235 16.6067H11.8059V16.1733Z" fill="#D22630"/>
<path d="M11.2153 13.1L12.5803 14.1133V15.5733L11.2153 16.5733H8.63624L7.27124 15.5733V14.1067L8.63624 13.08L11.2153 13.1Z" fill="#00843D"/>
<path d="M7.59283 15.72L7.44189 15.5467L7.59283 15.3733L7.44189 15.1933L7.59283 15.02L7.44189 14.84L7.59283 14.6667L7.44189 14.4867L7.59283 14.3133L7.44189 14.16L7.59283 13.96H12.2522L12.4031 14.16L12.2522 14.3133L12.4031 14.4867L12.2522 14.6667L12.4031 14.84L12.2522 15.02L12.4031 15.1933L12.2522 15.3733L12.4031 15.5467L12.2522 15.72H7.59283ZM10.815 13.3267L10.6181 13.1533L10.441 13.3067L10.2703 13.1533L10.0997 13.3067L9.92252 13.1533L9.75189 13.3067L9.57471 13.1533L9.40408 13.3067L9.22689 13.1533L9.05627 13.3267V16.3533L9.22689 16.5267L9.40408 16.38L9.57471 16.5267L9.75189 16.38L9.92252 16.5267L10.0997 16.38L10.2703 16.5267L10.441 16.38L10.6181 16.5267L10.7888 16.38L10.815 13.3267Z" fill="#383739"/>
<path d="M10.4212 13.3533L10.2703 13.2L10.0997 13.3333V16.3533L10.2703 16.5067L10.4212 16.3533V13.3533ZM9.75186 13.3533L9.57467 13.2L9.4303 13.3333V16.3533L9.57467 16.5067L9.75186 16.3533V13.3533Z" fill="#FFC72C"/>
<path d="M7.61249 15.72L7.46811 15.5467L7.61905 15.3933H12.2325L12.3769 15.5467L12.2325 15.72H7.61249ZM12.2325 14.6867L12.3769 14.84L12.2325 15.02H7.61249L7.46155 14.84L7.61249 14.6867H12.2325ZM12.2325 14.3133L12.3769 14.16L12.2325 13.9867H7.61249L7.46155 14.16L7.61249 14.3133H12.2325Z" fill="#FFC72C"/>
<path d="M10.7625 13.3533L10.6181 13.2L10.4409 13.3333V16.3533L10.6181 16.5067L10.769 16.3533L10.7625 13.3533ZM9.4303 13.3533L9.25311 13.2L9.10217 13.3333V16.3533L9.25311 16.5067L9.4303 16.3533V13.3533Z" fill="#D22630"/>
<path d="M7.61251 15.3733L7.46814 15.1933L7.61908 15.04H12.2325L12.3769 15.1933L12.2325 15.3733H7.61251ZM7.61251 14.6667L7.46814 14.4867L7.61908 14.34H12.2325L12.3769 14.4867L12.2325 14.6667H7.61251Z" fill="#D22630"/>
<path d="M10.0997 16.38L9.92254 16.5067L9.77161 16.3533V13.3533L9.92254 13.2267L10.0997 13.36V16.38Z" fill="#D22630"/>
<path d="M11.4844 13.38H8.36067V13.6333H7.94067V16.0533H8.33442V16.3H11.4582V16.0533H11.911V13.6333H11.5107V13.38H11.4844Z" fill="#383739"/>
<path d="M8.38691 13.4V13.66H7.99316V16.0267H8.38691V16.28H8.68223L8.0391 15.72V13.96L8.68223 13.4067H8.36066L8.38691 13.4ZM11.1432 13.4L11.7863 13.9867V15.7467L11.1629 16.2533H11.491V16H11.8847V13.6333H11.491V13.38H11.1629L11.1432 13.4Z" fill="#D22630"/>
<path d="M8.72809 13.4L8.08496 13.9867V15.72L8.73465 16.28H11.1168L11.76 15.72V13.96L11.1168 13.4067L8.72809 13.4ZM8.78059 13.5067H11.0643L11.6878 14.0067V15.6733L11.0643 16.1733H8.78059L8.16371 15.6733V14.0333L8.78059 13.5067Z" fill="#00843D"/>
<path d="M9.37775 15.7L9.47619 15.7467L9.50244 15.88L9.37119 15.9733L9.57463 16.1533H9.37775L9.25307 16.02L9.12838 16.1533H8.9315L9.10213 15.9733L8.97744 15.8733V15.7467L9.10869 15.7L9.22682 15.8L9.37775 15.7ZM10.0471 15.7L10.1456 15.7467L10.1718 15.88L10.0471 15.9733L10.244 16.1533H10.0471L9.92244 16.02L9.79775 16.1533H9.62713L9.79775 15.9733L9.67307 15.8733V15.7467L9.80432 15.7L9.92244 15.8L10.0471 15.7ZM10.4671 15.7L10.3687 15.7467L10.3424 15.88L10.4737 15.9733L10.2965 16.1533H10.4671L10.5984 16.02L10.7165 16.1533H10.9134L10.7165 15.9733L10.8412 15.8733V15.7467L10.7165 15.7L10.5918 15.8L10.4671 15.7ZM9.38432 14L9.48275 13.9533L9.509 13.8267L9.37775 13.7L9.58119 13.5267H9.38432L9.25963 13.6533L9.13494 13.52H8.93807L9.10869 13.7L8.984 13.8267V13.9533L9.11525 14L9.23338 13.88L9.38432 14ZM10.0537 14L10.1521 13.9533L10.1784 13.8267L10.0537 13.7L10.2506 13.5267H10.0537L9.929 13.6533L9.80432 13.52H9.63369L9.80432 13.7L9.67963 13.8267V13.9533L9.81088 14L9.929 13.88L10.0537 14ZM10.4737 14L10.3753 13.9533L10.349 13.8267L10.4803 13.7L10.3031 13.5267H10.4737L10.6049 13.6533L10.7231 13.52H10.9199L10.7231 13.7L10.8478 13.8267V13.9533L10.7231 14L10.5984 13.88L10.4737 14ZM11.6681 14.18L11.5696 14.28L11.6681 14.3533V14.5067L11.4909 14.38L11.3924 14.48H11.2678L11.2218 14.38L11.3203 14.28L11.2218 14.18L11.2678 14.08H11.399L11.4909 14.18L11.6681 14.0533V14.18ZM11.6681 14.76L11.5696 14.8333L11.6681 14.9333V15.0667L11.4909 14.9333L11.3924 15.0333H11.2678L11.2218 14.9333L11.3203 14.8333L11.2218 14.7333L11.2678 14.66H11.399L11.4909 14.7333L11.6681 14.6067V14.76ZM11.6681 15.5133L11.5696 15.4133L11.6681 15.3133V15.1867L11.4909 15.3133L11.3924 15.2133H11.2678L11.2218 15.3133L11.3203 15.4133L11.2218 15.5133L11.2678 15.5933H11.399L11.4909 15.5133L11.6681 15.6467V15.5133ZM8.18994 14.18L8.32119 14.28L8.18994 14.3533V14.5067L8.36713 14.38L8.46557 14.48H8.59025L8.64275 14.38L8.53775 14.28L8.64275 14.18L8.59025 14.08H8.46557L8.36713 14.18L8.18994 14.0533V14.18ZM8.18994 14.76L8.32119 14.8333L8.18994 14.9333V15.0667L8.36713 14.9333L8.46557 15.0333H8.59025L8.64275 14.9333L8.53775 14.8333L8.64275 14.7333L8.59025 14.66H8.46557L8.36713 14.7333L8.18994 14.6067V14.76ZM8.18994 15.5133L8.32119 15.4133L8.18994 15.3133V15.1867L8.36713 15.3133L8.46557 15.2133H8.59025L8.64275 15.3133L8.53775 15.4133L8.64275 15.5133L8.59025 15.5933H8.46557L8.36713 15.5133L8.18994 15.6467V15.5133Z" fill="#00843D"/>
<path d="M8.78057 13.5333L8.20963 14.0333L8.36057 14.1667L8.45901 14.06H8.60995L8.65588 14.1867L8.55745 14.2867L8.65588 14.3867L8.60995 14.4867H8.43276L8.33432 14.4133L8.1637 14.54V14.5867L8.33432 14.72L8.43276 14.6133L8.5837 14.64L8.6362 14.74L8.5312 14.84L8.6362 14.94L8.5837 15.0733H8.43276L8.33432 14.9667L8.1637 15.12V15.14L8.33432 15.2933L8.43276 15.1933H8.5837L8.6362 15.32L8.5312 15.42L8.6362 15.52L8.5837 15.62H8.43276L8.33432 15.5467L8.18338 15.6733L8.75432 16.1733H8.88557L9.08245 15.9733L8.9512 15.8733V15.72L9.10213 15.6733L9.23338 15.7733L9.35151 15.6733L9.48276 15.72L9.50245 15.8733L9.3712 15.9733L9.57463 16.1533L9.75182 15.9733L9.62057 15.8733V15.72L9.77151 15.6733L9.90276 15.7733L10.0209 15.6733L10.1521 15.72L10.1718 15.8733L10.0471 15.9733L10.2178 16.1533L10.4146 15.9733L10.2965 15.8733V15.72L10.4409 15.6733L10.5721 15.7733L10.6903 15.6733L10.8215 15.72L10.8412 15.8733L10.7165 15.9733L10.9134 16.1533H11.0446L11.609 15.6467L11.4581 15.5467L11.3596 15.6467L11.2153 15.62L11.1628 15.52L11.2612 15.42L11.1628 15.32L11.2153 15.22L11.3596 15.1933L11.4581 15.2933L11.6353 15.14V15.12L11.4581 14.9667L11.3596 15.0667H11.2218L11.1693 14.94L11.2678 14.84L11.1693 14.74L11.2218 14.64H11.3662L11.4646 14.7133L11.6418 14.5867V14.54L11.4646 14.4067L11.3662 14.5133L11.2218 14.4867L11.1693 14.3867L11.2678 14.2867L11.1693 14.1867L11.2218 14.0867L11.3662 14.06L11.4646 14.16L11.6156 14.0333L11.0446 13.5333H10.9199L10.7231 13.7067L10.8478 13.8333V13.9867L10.6968 14.0333L10.5721 13.9333L10.4474 14.0333L10.3293 13.9867L10.3031 13.8333L10.4278 13.7067L10.2506 13.5333L10.0537 13.7067L10.1784 13.8333V13.9867L10.0274 14.0333L9.90276 13.9333L9.77807 14.0333L9.65995 13.9867L9.6337 13.8333L9.75838 13.7067L9.5812 13.5333L9.38432 13.7067L9.50901 13.8333V13.9867L9.35807 14.0333L9.23338 13.9333L9.1087 14.0333L8.98401 13.9867L8.96432 13.8333L9.08901 13.7067L8.89213 13.5333H8.78057ZM8.18995 14.7933V14.9133L8.25557 14.8467L8.18995 14.7933Z" fill="#D22630"/>
<path d="M9.25316 16.0733L9.15472 16.1533H9.3516L9.25316 16.0733ZM9.92253 16.0733L9.8241 16.1533H10.021L9.92253 16.0733ZM10.5919 16.0733L10.4935 16.1533H10.6903L10.5919 16.0733ZM9.14816 13.5533L9.25316 13.6333L9.3516 13.5333L9.14816 13.5533ZM9.8241 13.5533L9.92253 13.6333L10.021 13.5333L9.8241 13.5533ZM10.4935 13.5533L10.5919 13.6333L10.6903 13.5333L10.4935 13.5533ZM11.6616 14.2333L11.5828 14.2867L11.6616 14.34V14.2333ZM11.6616 14.7933L11.5828 14.84L11.6616 14.9133V14.7933ZM11.6616 15.3733L11.5828 15.42L11.6616 15.4733V15.3733ZM8.18347 14.2133V14.34L8.26222 14.2867L8.18347 14.2133ZM8.18347 14.7933V14.9133L8.26222 14.8467L8.18347 14.7933ZM8.18347 15.3467V15.4733L8.26222 15.42L8.18347 15.3467Z" fill="white"/>
<path d="M10.5 14.6667V14.4667H10.2966V14.2333H9.54846V14.46H9.35158V14.66H9.08252V15.04H9.35158V15.24H9.54846V15.4733H10.3031V15.22H10.5V15.04H10.7756V14.6667H10.5Z" fill="#383739"/>
<path d="M9.92249 14.2667V14.4867L9.60092 14.6667V14.84H9.10217V14.6867H9.35155V14.4867H9.57467V14.2333L9.92249 14.2667ZM9.92249 15.4467V15.1933L10.2506 15.02V14.8667H10.7428V15.02H10.4934V15.22H10.2703V15.4467H9.92249Z" fill="#FFC72C"/>
<path d="M10.244 14.84V14.6667L9.92249 14.4867V14.2333H10.2703V14.4867H10.4672V14.6867H10.7428V14.84H10.244ZM9.10217 14.84H9.60092V15.02L9.92905 15.22V15.4467H9.57467V15.1933H9.3778V15.02H9.10217V14.84Z" fill="white"/>
<path d="M9.6272 14.8667V15.02L9.92251 15.1933V14.86L9.6272 14.8667Z" fill="#D22630"/>
<path d="M9.92251 14.5133L9.6272 14.6867V14.84H9.92251V14.5133Z" fill="#00843D"/>
<path d="M10.2178 14.84V14.6867L9.92249 14.5133V14.8467L10.2178 14.84Z" fill="#D22630"/>
<path d="M9.92249 15.2L10.2178 15.02V14.8667H9.92249V15.2Z" fill="#00843D"/>
<path d="M7.21869 18.8667V19.5H6.64775V20.06H6.05713V21.6667H6.64775V22.2467H7.19244V22.8533H9.32525L9.69932 23.1067L9.52869 23.2067H8.78057L8.70838 23.1333H9.43025L9.23338 22.9333H8.23588L8.68213 23.4067H9.60088L9.929 23.18L10.244 23.38H11.1628L11.609 22.9067H10.6181L10.4212 23.1067H11.1168L11.0643 23.18H10.2965L10.1193 23.0533L10.4934 22.8267H12.6262V22.2267H13.1971V21.6667H13.7878V20.0667H13.1971V19.5067H12.6524V18.88H10.5196L10.1456 18.6267L10.3228 18.5267H11.0643L11.1365 18.6H10.4146L10.6181 18.8H11.609L11.1628 18.3267H10.244L9.92244 18.5267L9.60088 18.3267H8.68213L8.23588 18.8267H9.22682L9.42369 18.6H8.73463L8.78057 18.5267H9.54838L9.72557 18.6533L9.3515 18.88L7.21869 18.8667Z" fill="#D22630"/>
<path d="M10.5 22.8267H12.6V22.2267H13.1513V21.6467H13.7419V20.08H13.1513V19.5H12.5803V18.9H10.4672L9.58127 18.3333H8.68877L8.29502 18.7667H9.21377L9.35815 18.6133H8.68877L8.78721 18.4867H9.55502L10.5525 19.12H12.4031V19.72H12.9938V20.3H13.5975V21.4133H12.9938V21.9933H12.4031V22.62H10.5853L9.5944 23.22H8.80034L8.7019 23.1H9.37127L9.22034 22.9467H8.30159L8.69534 23.3733H9.61409L10.5 22.8267ZM9.2794 22.6267H7.46815V22H6.89065V21.42H6.30002V20.3067H6.89065V19.7333H7.43534V19.1533H9.25315L10.2441 18.5267H11.0381L11.1366 18.6533H10.4672L10.6181 18.8067H11.5369L11.1563 18.3333H10.2375L9.37127 18.8933H7.23846V19.4933H6.69377V20.0733H6.10315V21.64H6.69377V22.22H7.27127V22.82H9.40409L10.2703 23.3733H11.1628L11.5566 22.9467H10.6378L10.4935 23.1H11.1628L11.0644 23.2267H10.2966L9.2794 22.6267Z" fill="#FFC72C"/>
<path d="M12.2062 21.82V22.42H10.5197L9.92905 22.8L9.3253 22.4267H7.63874V21.8267H7.0678V21.24H6.45093V20.4867H7.04155V19.9067H7.61905V19.3067H9.30562L9.89624 18.9467L10.4934 19.3H12.18V19.9H12.7509V20.4867H13.3941V21.24H12.8034V21.82H12.2062Z" fill="#00843D"/>
<path d="M7.86182 21.6V22.1733H8.80682L7.86182 21.54V21.6ZM7.86182 20.1333V19.5333H8.80682L7.86182 20.16V20.1333ZM11.9831 21.6V22.1733H11.0381L11.9831 21.54V21.6ZM11.9831 20.1333V19.5333H11.0381L11.9831 20.16V20.1333Z" fill="#383739"/>
<path d="M7.88806 21.62L8.73462 22.1733H7.88806V21.62ZM7.88806 20.1067L8.73462 19.5533H7.88806V20.1067ZM11.9568 21.62L11.1168 22.1733H11.9568V21.62ZM11.9568 20.1067L11.1168 19.5533H11.9568V20.1067Z" fill="#D22630"/>
<path d="M9.05621 20.6867V20.4067H8.95777L8.45902 20.1067L7.96027 20.4067H7.86183V20.7133H7.61902V21.0667H7.86183V21.3667H7.96027L8.45902 21.6667L8.95777 21.3667H9.05621V21.0667H9.40402V20.6667L9.05621 20.6867Z" fill="#383739"/>
<path d="M8.43282 20.1067L8.93157 20.3867H7.98657L8.43282 20.1067ZM8.93157 21.34L8.43282 21.62L7.98657 21.34H8.93157ZM8.80688 20.7133V21.0133H8.23595V20.7133H8.80688Z" fill="#D22630"/>
<path d="M9.02992 21.04V21.3133H8.45898V21.04H9.02992ZM8.4393 21.04V21.3133H7.8618V21.04H8.4393ZM9.37773 20.7067V21.0133H8.83305V20.7133L9.37773 20.7067ZM8.20961 20.7067V21.0133H7.63867V20.7133L8.20961 20.7067ZM9.02992 20.4067V20.6867H8.45898V20.4333L9.02992 20.4067ZM8.4393 20.4067V20.6867H7.8618V20.4333L8.4393 20.4067Z" fill="#FFC72C"/>
<path d="M8.06526 20.7867V20.94H7.80933V20.7867H8.06526ZM8.28839 20.4867V20.6333H8.03901V20.4867H8.28839ZM8.87901 20.4867V20.6333H8.6362V20.4867H8.87901ZM8.6362 20.7867V20.94H8.38683V20.7867H8.6362ZM9.22683 20.7867V20.94H8.97745V20.7867H9.22683ZM8.87901 21.0867V21.24H8.6362V21.0867H8.87901ZM8.28839 21.0867V21.24H8.03901V21.0867H8.28839Z" fill="#383739"/>
<path d="M8.03901 20.8133H7.80933V20.9133H8.03245L8.03901 20.8133ZM8.28839 20.5133H8.03901V20.6133H8.28839V20.5133ZM8.85933 20.5133H8.6362V20.6133H8.85933V20.5133ZM8.60995 20.8133H8.43276V20.9133H8.62964L8.60995 20.8133ZM9.20058 20.8133H9.0037V20.9133H9.20058V20.8133ZM8.85933 21.1133H8.6362V21.2133H8.85933V21.1133ZM8.26214 21.1133H8.06526V21.2133H8.26214V21.1133Z" fill="white"/>
<path d="M10.7887 20.6867V20.4067H10.8937L11.3859 20.1067L11.8847 20.4067H12.0094V20.7133H12.2325V21.0667H11.9831V21.3667H11.9109L11.4122 21.6667L10.9134 21.3667H10.815V21.0667H10.4672V20.6667L10.7887 20.6867Z" fill="#383739"/>
<path d="M11.4122 20.1067L10.9135 20.3867H11.8322L11.4122 20.1067ZM10.9135 21.34L11.3597 21.62L11.8322 21.34H10.9135ZM11.0119 20.7133V21.0133H11.5828V20.7133H11.0119Z" fill="#D22630"/>
<path d="M10.815 21.04V21.3133H11.3859V21.04H10.815ZM11.4056 21.04V21.3133H11.9831V21.04H11.4056ZM10.4672 20.7067V21.0133H11.0381V20.7133L10.4672 20.7067ZM11.6353 20.7067V21.0133H12.2062V20.7133L11.6353 20.7067ZM10.815 20.4067V20.6867H11.3859V20.4333L10.815 20.4067ZM11.4056 20.4067V20.6867H11.9831V20.4333L11.4056 20.4067Z" fill="#FFC72C"/>
<path d="M11.8124 20.7867V20.94H12.0552V20.7867H11.8124ZM11.563 20.4867V20.6333H11.8059V20.4867H11.563ZM10.9659 20.4867V20.6333H11.2152V20.4867H10.9659ZM11.2152 20.7867V20.94H11.458V20.7867H11.2152ZM10.618 20.7867V20.94H10.8674V20.7867H10.618ZM10.9659 21.0867V21.24H11.2152V21.0867H10.9659ZM11.5565 21.0867V21.24H11.8059V21.0867H11.5565Z" fill="#383739"/>
<path d="M11.8125 20.8133H12.0291V20.9133H11.8125V20.8133ZM11.5828 20.5133H11.7797V20.6133H11.5828V20.5133ZM10.9922 20.5133H11.2153V20.6133H10.9922V20.5133ZM11.235 20.8133H11.4319V20.9133H11.235V20.8133ZM10.6444 20.8133H10.8413V20.9133H10.6707L10.6444 20.8133ZM10.9922 21.1133H11.2153V21.2133H10.9922V21.1133ZM11.5828 21.1133H11.7797V21.2133H11.5828V21.1133Z" fill="white"/>
<path d="M10.5197 20.18V20.4867H10.4213L9.9225 20.8133L9.43031 20.48H9.31875V20.18H9.02344V19.8533H9.31875V19.5533H9.42375L9.91594 19.22L10.4147 19.5533H10.5131V19.8533H10.8084V20.16L10.5197 20.18Z" fill="#383739"/>
<path d="M9.92245 20.7867L10.3687 20.4867H9.4762L9.92245 20.7867ZM10.3687 19.5333L9.92245 19.28L9.4762 19.5333H10.3687Z" fill="#FFC72C"/>
<path d="M10.5 19.8533V19.5533H9.94877V19.8533H10.5ZM9.92252 19.8533V19.5533H9.35159V19.8533H9.92252ZM10.7888 20.16V19.9067H10.2178V20.16H10.7888ZM10.1981 20.16V19.9067H9.67315V20.16H10.1981ZM9.62721 20.16V19.9067H9.05627V20.16H9.62721ZM10.4935 20.46V20.18H9.94877V20.46H10.4935ZM9.92252 20.46V20.18H9.35159V20.46H9.92252Z" fill="#D22630"/>
<path d="M9.75193 19.6267V19.78H9.50256V19.6533L9.75193 19.6267ZM10.3426 19.6267V19.78H10.1063V19.6533L10.3426 19.6267ZM9.45006 19.9333V20.1067H9.20068V19.9067L9.45006 19.9333ZM10.0472 19.9333V20.1067H9.79787V19.9067L10.0472 19.9333ZM10.6379 19.9333V20.1067H10.3951V19.9067L10.6379 19.9333ZM9.75193 20.26V20.4067H9.50256V20.2667L9.75193 20.26ZM10.3426 20.26V20.4067H10.1063V20.2667L10.3426 20.26Z" fill="#383739"/>
<path d="M9.72559 19.6533H9.52871V19.7533H9.72559V19.6533ZM10.3162 19.6533H10.1193V19.7533H10.3162V19.6533ZM9.43027 19.9533H9.2334V20.0867H9.43027V19.9533ZM10.0209 19.9533H9.82402V20.0867H10.0209V19.9533ZM10.6181 19.9533H10.4212V20.0867H10.6181V19.9533ZM9.72559 20.26H9.52871V20.3867H9.72559V20.26ZM10.3162 20.26H10.1193V20.3867H10.3162V20.26Z" fill="white"/>
<path d="M10.5197 21.8667V22.2H10.4213L9.9225 22.5L9.43031 22.2H9.31875V21.8667H9.02344V21.54H9.31875V21.24H9.42375L9.91594 20.9133L10.4147 21.2467H10.5131V21.54H10.8084V21.8733L10.5197 21.8667Z" fill="#383739"/>
<path d="M9.92245 22.4733L10.3687 22.2H9.4762L9.92245 22.4733ZM10.3687 21.2133L9.92245 20.9667L9.4762 21.2133H10.3687Z" fill="#FFC72C"/>
<path d="M10.5 21.54V21.2667H9.94877V21.54H10.5ZM9.92252 21.54V21.2667H9.35159V21.54H9.92252ZM10.7888 21.8467V21.5667H10.2178V21.8467H10.7888ZM10.1981 21.8467V21.5667H9.67315V21.8467H10.1981ZM9.62721 21.8467V21.5667H9.05627V21.8467H9.62721ZM10.4935 22.1733V21.8733H9.94877V22.1733H10.4935ZM9.92252 22.1733V21.8733H9.35159V22.1733H9.92252Z" fill="#D22630"/>
<path d="M9.75193 21.3133V21.4933H9.50256V21.3133H9.75193ZM10.3426 21.3133V21.4933H10.1063V21.3133H10.3426ZM9.45006 21.6667V21.82H9.20068V21.6667H9.45006ZM10.0472 21.6667V21.82H9.79787V21.6667H10.0472ZM10.6379 21.6667V21.82H10.3951V21.6667H10.6379ZM9.75193 21.92V22.0733H9.50256V21.92H9.75193ZM10.3426 21.92V22.0733H10.1063V21.92H10.3426Z" fill="#383739"/>
<path d="M9.72559 21.34H9.52871V21.4733H9.72559V21.34ZM10.3162 21.34H10.1193V21.4733H10.3162V21.34ZM9.43027 21.6733H9.2334V21.7733H9.43027V21.6733ZM10.0209 21.6733H9.82402V21.7733H10.0209V21.6733ZM10.6181 21.6733H10.4212V21.7733H10.6181V21.6733ZM9.72559 21.9733H9.52871V22.0733H9.72559V21.9733ZM10.3162 21.9733H10.1193V22.0733H10.3162V21.9733Z" fill="white"/>
<path d="M6.69373 25.5733L8.92498 24.3667H10.9134L13.1447 25.5733V27.5667L10.9134 28.7467H8.93154L6.70029 27.5667L6.69373 25.5733Z" fill="#383739"/>
<path d="M8.92497 24.3933L6.71997 25.5733V27.54L8.93153 28.7467H10.9134L13.125 27.54V25.5733L10.9397 24.4L8.92497 24.3933ZM8.95778 24.54H10.9134L13.0003 25.6733V27.44L10.9134 28.5733H8.97747L6.89716 27.44V25.6667L8.95778 24.54Z" fill="#00843D"/>
<path d="M9.92253 26.56V28.5733H10.9135L12.9741 27.44V26.58H9.92253V24.5667H8.9316L6.87097 25.6733V26.56H9.92253Z" fill="#FFC72C"/>
<path d="M9.92253 26.56V28.5733H8.9316L6.87097 27.44V26.58H9.92253V24.5667H10.9135L12.9741 25.6733V26.56H9.92253Z" fill="white"/>
<path d="M10.0997 28.4467V27.8667L9.92252 28L9.7519 27.8667V28.4467H9.15471L9.54846 28.1467V27.7467L8.95784 27.3667H8.56409V25.7533H8.93159L9.52221 25.3733V24.9733L9.18752 24.6667H9.77815V25.2467L9.95534 25.1467L10.126 25.2467V24.6933H10.7231L10.3294 24.9933V25.3933L10.92 25.7733H11.3466V27.3867H10.92L10.3294 27.7667V28.1667L10.7231 28.4733L10.0997 28.4467Z" fill="#383739"/>
<path d="M10.1194 24.6933V25.2933L9.92249 25.1733V25.3467L10.8412 25.9267H11.1366V26.56H11.2875V25.8H10.8937L10.2703 25.4V24.9467L10.6181 24.6933H10.1194ZM8.58374 26.58V27.34H8.93155L9.54843 27.74V28.1733L9.20061 28.42H9.69937V27.82L9.89624 27.94V27.7667L8.97749 27.1867H8.68218V26.5867L8.58374 26.58Z" fill="#FFC72C"/>
<path d="M9.22687 24.6933L9.57468 24.9467V25.4L8.9578 25.7733H8.58374V26.5333H8.70843V25.9533H9.00374L9.92249 25.3733V25.2L9.72561 25.32V24.6933H9.22687ZM11.1366 26.58V27.1867H10.8412L9.92249 27.7667V27.94L10.1194 27.82V28.42H10.6181L10.2703 28.1733V27.7133L10.8937 27.3133H11.2875V26.56L11.1366 26.58Z" fill="white"/>
<path d="M8.72815 27.16H9.00377L9.92252 27.7667L10.8413 27.1667H11.1169V25.9533H10.8413L9.92252 25.3733L9.00377 25.9533H8.7544L8.72815 27.16Z" fill="#D22630"/>
<path d="M10.5459 26.86H10.7428V26.76H10.5918V26.58H10.92V27.0133H10.6181V27.3133H9.99464V26.8867H10.2703V27.06H10.1718V27.14H10.4212V26.9867L9.27933 26.28H9.08246V26.3533H9.22683V26.5333H8.93152V26.1067H9.22683V25.8H9.85027V26.2267H9.60089V26.0533H9.67308V25.98H9.43027V26.1267L10.5459 26.86ZM10.4409 26.1267V25.98H10.1718V26.0533H10.2703V26.2267H9.99464V25.8H10.6181V26.1067H10.9134V26.5333H10.5918V26.3533H10.7428V26.28H10.5459L9.43027 26.96V27.1133H9.67308V27.0333H9.58121V26.8667H9.85683V27.2933H9.23339V26.9933H8.93808V26.5667H9.25964V26.74H9.10871V26.84H9.30558L10.4409 26.1267Z" fill="#383739"/>
<path d="M10.4672 26.96V27.16H10.1719V27.0333H10.2704V26.9133H10.0472V27.2867H10.6182V26.9867H10.9135V26.6H10.6707V26.7333H10.7888V26.88H10.5657L9.4041 26.12V25.9467H9.72566V26.0733H9.62723V26.2H9.8766V25.82H9.27941V26.12H8.97754V26.5H9.22691V26.3733H9.10223V26.2467H9.32535L10.4672 26.96ZM10.546 26.2533H10.7888V26.3867H10.6182V26.5067H10.9135V26.1333H10.6182V25.8333H10.0472V26.2133H10.2704V26.08H10.1719V25.96H10.5V26.16L9.32535 26.8933H9.10223V26.7333H9.25316V26.6067H9.00379V26.9867H9.27941V27.2867H9.85035V26.9133H9.62723V27.0333H9.72566V27.1667H9.39754V26.9667L10.546 26.2533Z" fill="white"/>
<path d="M12.5016 26.66V27.2867H12.2522V27.0667H11.9831V27.2933H11.7075V26.6667H11.9569V26.8933H12.2325V26.6667L12.5016 26.66ZM11.5631 27.4867V28.12H11.3137V27.8933H11.0381V28.12H10.7887V27.4867H11.0381V27.7133H11.2875V27.4867H11.5631ZM12.5016 26.4867V25.8267H12.2522V26.0533H11.9831V25.8267H11.7075V26.46H11.9569V26.2267H12.2325V26.48L12.5016 26.4867ZM7.34343 26.66V27.2867H7.5928V27.0667H7.86187V27.2933H8.13749V26.6667H7.88811V26.8933H7.61905V26.6667L7.34343 26.66ZM7.34343 26.46V25.8267H7.5928V26.0533H7.86187V25.8267H8.13749V26.46H7.88811V26.2267H7.61905V26.48L7.34343 26.46ZM11.5631 25.6267V24.9933H11.3137V25.22H11.0381V25H10.7887V25.6333H11.0381V25.4H11.2875V25.6533L11.5631 25.6267ZM8.28186 27.4933V28.12H8.53124V27.8933H8.80686V28.12H9.08249V27.4867H8.83312V27.7133H8.55749V27.4867L8.28186 27.4933ZM8.28186 25.6267V24.9933H8.53124V25.22H8.80686V25H9.08249V25.6333H8.83312V25.4H8.55749V25.6533L8.28186 25.6267ZM11.7075 25.2V25.6733H12.5803L11.7075 25.2ZM8.13749 27.9333V27.4333H7.27124L8.13749 27.9333ZM8.13749 25.1667V25.6667H7.27124L8.13749 25.1667ZM11.7075 27.9333V27.4333H12.5803L11.7075 27.9333Z" fill="#383739"/>
<path d="M12.2521 27.0333V27.2867H12.4753V26.6867H12.2521V26.9133H11.9568V26.6867H11.7074V27.26H11.9568V27.0333H12.2521ZM11.3137 27.8667V28.12H11.5368V27.52H11.3137V27.74H11.0118V27.5133H10.7887V28.0933H11.0118V27.8667H11.3137ZM12.2521 26.08V25.8533H12.4753V26.4333H12.2521V26.2H11.9568V26.4533H11.7074V25.8467H11.9568V26.0733L12.2521 26.08ZM7.59275 27.0333V27.2867H7.36963V26.6867H7.59275V26.9133H7.88807V26.6867H8.13744V27.26H7.88807V27.0333H7.59275ZM7.59275 26.08V25.8533H7.36963V26.4333H7.59275V26.2H7.88807V26.4533H8.13744V25.8467H7.88807V26.0733L7.59275 26.08ZM11.3137 25.2467V25.02H11.5368V25.6H11.3137V25.3733H11.0118V25.6267H10.7887V25.0267H11.0118V25.2467H11.3137ZM8.53119 27.8667V28.12H8.30807V27.52H8.53119V27.74H8.83307V27.5133H9.08244V28.0933H8.83307V27.8667H8.53119ZM8.53119 25.2467V25.02H8.30807V25.6H8.53119V25.3733H8.83307V25.6267H9.08244V25.0267H8.83307V25.2467H8.53119Z" fill="#D22630"/>
<path d="M11.7337 25.22V25.6533H12.4753L11.7337 25.22ZM7.34338 27.4867L8.08495 27.8867V27.4867H7.34338Z" fill="#FFC72C"/>
<path d="M8.11119 25.22L7.36963 25.6533H8.11119V25.22ZM11.7337 27.4867V27.8867L12.4753 27.4867H11.7337Z" fill="white"/>
<path d="M13.4925 28.32C13.4465 28.5 13.2956 28.6267 13.2693 28.8267C13.2037 28.6267 13.1512 28.4467 13.2037 28.2467C13.2037 28.0933 13.3481 27.9933 13.3743 27.82C13.4837 27.9445 13.5231 28.1111 13.4925 28.32ZM13.5187 29.08C13.4027 29.2401 13.2493 29.3684 13.0725 29.4533C13.0987 29.3067 13.0265 29.2 12.9478 29.08C12.8756 28.9467 12.8231 28.8267 12.9018 28.6467C12.9328 28.7278 12.9748 28.8041 13.0265 28.8733C13.0987 28.9733 13.1709 29.0733 13.1709 29.2267C13.2693 29.1533 13.3021 29.0533 13.3481 28.9533C13.4274 28.8034 13.5483 28.6805 13.6959 28.6C13.6434 28.7733 13.6171 28.9267 13.5187 29.08ZM12.8756 29.58L12.9018 29.8333L13.1709 29.6333C13.3021 29.5 13.4465 29.4533 13.545 29.3C13.5388 29.3933 13.5135 29.4843 13.4705 29.567C13.4276 29.6497 13.368 29.7222 13.2956 29.78L12.8034 30.1133C12.799 29.94 12.7553 29.7711 12.6721 29.6067C12.6616 29.5342 12.668 29.4602 12.6908 29.3908C12.7136 29.3213 12.7521 29.2582 12.8034 29.2067C12.8034 29.3311 12.8275 29.4467 12.8756 29.5533V29.58ZM12.5015 30.16L12.3046 30.5133C12.4709 30.4511 12.6371 30.3667 12.8034 30.26C12.974 30.16 13.1709 30.1133 13.3481 29.96C13.2693 30.2867 13.0462 30.46 12.7575 30.56C12.554 30.6133 12.3571 30.5867 12.1012 30.6933C12.135 30.5164 12.1947 30.3456 12.2784 30.1867L12.4556 29.8333C12.5081 29.9267 12.5234 30.0378 12.5015 30.1667V30.16ZM11.8584 30.64C11.7952 30.7425 11.7099 30.8291 11.609 30.8933C11.8584 30.8933 12.0553 30.76 12.3046 30.74C12.4556 30.74 12.6 30.7933 12.7509 30.7667C12.5803 30.8933 12.3768 31.02 12.1603 31.02C11.8846 31.0667 11.609 31.02 11.3071 31.02C11.4581 30.9133 11.5368 30.7667 11.609 30.64C11.7403 30.44 11.8584 30.3067 12.0815 30.2867C11.9831 30.3867 11.9306 30.54 11.8584 30.64ZM10.9921 31.04C11.4121 31.12 11.8321 31.22 12.2784 31.22C11.8121 31.4196 11.288 31.4292 10.815 31.2467C10.5656 31.1667 10.3425 31.0933 10.1456 31.1133C9.87651 31.1133 9.50245 31.2667 9.10214 31.6733L8.95776 31.5467C9.5287 31.04 10.2703 30.9133 10.9921 31.04Z" fill="#FFC72C"/>
</g>
<defs>
<clipPath id="clip0_506_689">
<rect width="42" height="32" rx="4" fill="white"/>
</clipPath>
</defs>
</svg>
