<svg width="42" height="31" viewBox="0 0 42 31" fill="none" xmlns="http://www.w3.org/2000/svg">
<g clip-path="url(#clip0_506_874)">
<path d="M0 0H42V31H0V0Z" fill="#012169"/>
<path d="M4.92188 0L20.9344 11.6896L36.8812 0H42V4.00417L26.25 15.5646L42 27.0604V31H36.75L21 19.4396L5.31562 31H0V27.125L15.6844 15.6292L0 4.13333V0H4.92188Z" fill="white"/>
<path d="M27.825 18.1479L42 28.4167V31L24.2156 18.1479H27.825ZM15.75 19.4396L16.1437 21.7L3.54375 31H0L15.75 19.4396ZM42 0V0.19375L25.6594 12.3354L25.7906 9.49375L38.7188 0H42ZM0 0L15.6844 11.3667H11.7469L0 2.7125V0Z" fill="#C8102E"/>
<path d="M15.8156 0V31H26.3156V0H15.8156ZM0 10.3333V20.6667H42V10.3333H0Z" fill="white"/>
<path d="M0 12.4646V18.6646H42V12.4646H0ZM17.9156 0V31H24.2156V0H17.9156Z" fill="#C8102E"/>
</g>
<defs>
<clipPath id="clip0_506_874">
<rect width="42" height="31" rx="4" fill="white"/>
</clipPath>
</defs>
</svg>
